%TF.GenerationSoftware,Novarm,DipTrace,3.0.0.2*%
%TF.CreationDate,2017-10-26T14:07:33+00:00*%
%FSLAX35Y35*%
%MOMM*%
%TF.FileFunction,Copper,L2,Bot*%
%TF.Part,Single*%
%TA.AperFunction,Conductor*%
%ADD13C,0.33*%
%ADD15C,1.25*%
%TA.AperFunction,CopperBalancing*%
%ADD16C,0.254*%
%TA.AperFunction,ComponentPad*%
%ADD21R,2.5X2.5*%
%ADD22C,2.5*%
%ADD34C,1.8796*%
%TA.AperFunction,ViaPad*%
%ADD35C,1.016*%
G75*
G01*
%LPD*%
X4275000Y3032000D2*
D13*
X3132000D1*
X2878000Y3286000D1*
Y4873500D1*
X2370000D2*
X2624000Y5127500D1*
X4084500D1*
X4275000Y4937000D1*
Y3794000D1*
X4529000Y3540000D1*
X4021000Y4873500D2*
Y3730500D1*
X4465500Y3286000D1*
Y2143000D1*
X4211500Y1889000D1*
X5037000Y4873500D2*
D15*
Y4333750D1*
X6053000Y3317750D1*
D35*
X4211500Y1889000D3*
X3259000Y3286000D3*
X4529000Y3540000D3*
X4846500Y3286000D3*
X3830500Y2778000D3*
X2243000Y4390800D3*
X4275000Y3032000D3*
X1053659Y5237233D2*
D16*
X6246352D1*
X1042150Y5212167D2*
X1171263D1*
X1282755D2*
X5997263D1*
X6108755D2*
X6257812D1*
X1040265Y5187100D2*
X1134800D1*
X1319218D2*
X5960800D1*
X6145218D2*
X6259747D1*
X1040265Y5162033D2*
X1114957D1*
X1339012D2*
X2584585D1*
X4123884D2*
X5940957D1*
X6165012D2*
X6259747D1*
X1040265Y5136967D2*
X1103298D1*
X1350720D2*
X2559532D1*
X4148987D2*
X5929298D1*
X6176720D2*
X6259747D1*
X1040265Y5111900D2*
X1097494D1*
X1356525D2*
X2534479D1*
X4174039D2*
X5923494D1*
X6182525D2*
X6259747D1*
X1040265Y5086833D2*
X1096800D1*
X1357219D2*
X2509377D1*
X4199092D2*
X5922800D1*
X6183219D2*
X6259747D1*
X1040265Y5061767D2*
X1101066D1*
X1352953D2*
X2484324D1*
X2632180D2*
X4076289D1*
X4224145D2*
X5927066D1*
X6178953D2*
X6259747D1*
X1040265Y5036700D2*
X1110889D1*
X1343080D2*
X2459272D1*
X2607127D2*
X4101342D1*
X4249247D2*
X5936889D1*
X6169080D2*
X6259747D1*
X1040265Y5011633D2*
X1128004D1*
X1326015D2*
X2288665D1*
X2582075D2*
X2796665D1*
X2959304D2*
X3224447D1*
X3547572D2*
X3939665D1*
X4102304D2*
X4126444D1*
X4274300D2*
X4447665D1*
X4610304D2*
X4875447D1*
X5198572D2*
X5954004D1*
X6152015D2*
X6259747D1*
X1040265Y4986567D2*
X1157670D1*
X1296348D2*
X2255625D1*
X2557022D2*
X2763625D1*
X2992344D2*
X3224447D1*
X3547572D2*
X3906625D1*
X4135344D2*
X4151497D1*
X4299353D2*
X4414625D1*
X4643344D2*
X4875447D1*
X5198572D2*
X5983670D1*
X6122348D2*
X6259747D1*
X1040265Y4961500D2*
X1179250D1*
X1274719D2*
X2235037D1*
X2531919D2*
X2743037D1*
X3012982D2*
X3224447D1*
X3547572D2*
X3886037D1*
X4155982D2*
X4176550D1*
X4321677D2*
X4394037D1*
X4663982D2*
X4875447D1*
X5198572D2*
X6005250D1*
X6100719D2*
X6259747D1*
X1040265Y4936433D2*
X1138323D1*
X1315646D2*
X2221444D1*
X2518575D2*
X2729444D1*
X3026575D2*
X3224447D1*
X3547572D2*
X3872444D1*
X4169575D2*
X4201652D1*
X4328027D2*
X4380444D1*
X4677575D2*
X4875447D1*
X5198572D2*
X5964323D1*
X6141646D2*
X6259747D1*
X1040265Y4911367D2*
X1117040D1*
X1336929D2*
X2213011D1*
X2526959D2*
X2721011D1*
X3034959D2*
X3224447D1*
X3547572D2*
X3864011D1*
X4177959D2*
X4221992D1*
X4328027D2*
X4372011D1*
X4685959D2*
X4875447D1*
X5198572D2*
X5943040D1*
X6162929D2*
X6259747D1*
X1040265Y4886300D2*
X1104489D1*
X1349530D2*
X2208943D1*
X2531027D2*
X2716943D1*
X3039027D2*
X3224447D1*
X3547572D2*
X3859943D1*
X4182027D2*
X4221992D1*
X4328027D2*
X4367943D1*
X4690027D2*
X4875447D1*
X5198572D2*
X5930489D1*
X6175530D2*
X6259747D1*
X1040265Y4861233D2*
X1097941D1*
X1356028D2*
X2208943D1*
X2531076D2*
X2716943D1*
X3039076D2*
X3224447D1*
X3547572D2*
X3859943D1*
X4182076D2*
X4221992D1*
X4328027D2*
X4367943D1*
X4690076D2*
X4875447D1*
X5198572D2*
X5923941D1*
X6182028D2*
X6259747D1*
X1040265Y4836167D2*
X1096601D1*
X1357418D2*
X2212911D1*
X2527107D2*
X2720911D1*
X3035107D2*
X3224447D1*
X3547572D2*
X3863911D1*
X4178107D2*
X4221992D1*
X4328027D2*
X4371911D1*
X4686107D2*
X4875447D1*
X5198572D2*
X5922601D1*
X6183418D2*
X6259747D1*
X1040265Y4811100D2*
X1100173D1*
X1353796D2*
X2221196D1*
X2518823D2*
X2729196D1*
X3026823D2*
X3224447D1*
X3547572D2*
X3872196D1*
X4169823D2*
X4221992D1*
X4328027D2*
X4380196D1*
X4677823D2*
X4875447D1*
X5198572D2*
X5926173D1*
X6179796D2*
X6259747D1*
X1040265Y4786033D2*
X1109252D1*
X1344767D2*
X2234640D1*
X2505329D2*
X2742640D1*
X3013329D2*
X3224447D1*
X3547572D2*
X3885640D1*
X4156329D2*
X4221992D1*
X4328027D2*
X4393640D1*
X4664329D2*
X4875447D1*
X5198572D2*
X5935252D1*
X6170767D2*
X6259747D1*
X1040265Y4760967D2*
X1125176D1*
X1328843D2*
X2255129D1*
X2484890D2*
X2763129D1*
X2992890D2*
X3224447D1*
X3547572D2*
X3906129D1*
X4135890D2*
X4221992D1*
X4328027D2*
X4414129D1*
X4643890D2*
X4875447D1*
X5198572D2*
X5951176D1*
X6154843D2*
X6259747D1*
X1040265Y4735900D2*
X1152511D1*
X1301508D2*
X2287772D1*
X2452247D2*
X2795772D1*
X2960247D2*
X3224447D1*
X3547572D2*
X3938772D1*
X4103247D2*
X4221992D1*
X4328027D2*
X4446772D1*
X4611247D2*
X4875447D1*
X5198572D2*
X5978511D1*
X6127508D2*
X6259747D1*
X1040265Y4710833D2*
X1189321D1*
X1264648D2*
X2824992D1*
X2931027D2*
X3967992D1*
X4074027D2*
X4221992D1*
X4328027D2*
X4937954D1*
X5136015D2*
X6015321D1*
X6090648D2*
X6259747D1*
X1040265Y4685767D2*
X1142143D1*
X1311876D2*
X2824992D1*
X2931027D2*
X3967992D1*
X4074027D2*
X4221992D1*
X4328027D2*
X4937954D1*
X5136015D2*
X5968143D1*
X6137876D2*
X6259747D1*
X1040265Y4660700D2*
X1119273D1*
X1334696D2*
X2824992D1*
X2931027D2*
X3967992D1*
X4074027D2*
X4221992D1*
X4328027D2*
X4937954D1*
X5136015D2*
X5945273D1*
X6160696D2*
X6259747D1*
X1040265Y4635633D2*
X1105779D1*
X1348240D2*
X2824992D1*
X2931027D2*
X3967992D1*
X4074027D2*
X4221992D1*
X4328027D2*
X4937954D1*
X5136015D2*
X5931779D1*
X6174240D2*
X6259747D1*
X1040265Y4610567D2*
X1098536D1*
X1355483D2*
X2824992D1*
X2931027D2*
X3967992D1*
X4074027D2*
X4221992D1*
X4328027D2*
X4937954D1*
X5136015D2*
X5924536D1*
X6181483D2*
X6259747D1*
X1040265Y4585500D2*
X1096502D1*
X1357517D2*
X2824992D1*
X2931027D2*
X3967992D1*
X4074027D2*
X4221992D1*
X4328027D2*
X4937954D1*
X5136015D2*
X5922502D1*
X6183517D2*
X6259747D1*
X1040265Y4560433D2*
X1099429D1*
X1354590D2*
X2824992D1*
X2931027D2*
X3967992D1*
X4074027D2*
X4221992D1*
X4328027D2*
X4937954D1*
X5136015D2*
X5925429D1*
X6180590D2*
X6259747D1*
X1040265Y4535367D2*
X1107664D1*
X1346305D2*
X2824992D1*
X2931027D2*
X3967992D1*
X4074027D2*
X4221992D1*
X4328027D2*
X4937954D1*
X5136015D2*
X5933664D1*
X6172305D2*
X6259747D1*
X1040265Y4510300D2*
X1122547D1*
X1331422D2*
X2824992D1*
X2931027D2*
X3967992D1*
X4074027D2*
X4221992D1*
X4328027D2*
X4937954D1*
X5136015D2*
X5948547D1*
X6157422D2*
X6259747D1*
X1040265Y4485233D2*
X1147848D1*
X1306171D2*
X2824992D1*
X2931027D2*
X3967992D1*
X4074027D2*
X4221992D1*
X4328027D2*
X4937954D1*
X5136015D2*
X5973848D1*
X6132171D2*
X6259747D1*
X1040265Y4460167D2*
X1204402D1*
X1249567D2*
X2824992D1*
X2931027D2*
X3967992D1*
X4074027D2*
X4221992D1*
X4328027D2*
X4937954D1*
X5136015D2*
X6030402D1*
X6075567D2*
X6259747D1*
X1040265Y4435100D2*
X1146310D1*
X1307709D2*
X2824992D1*
X2931027D2*
X3967992D1*
X4074027D2*
X4221992D1*
X4328027D2*
X4937954D1*
X5136015D2*
X5972310D1*
X6133709D2*
X6259747D1*
X1040265Y4410033D2*
X1121704D1*
X1332315D2*
X2824992D1*
X2931027D2*
X3967992D1*
X4074027D2*
X4221992D1*
X4328027D2*
X4937954D1*
X5136015D2*
X5947704D1*
X6158315D2*
X6259747D1*
X1040265Y4384967D2*
X1107168D1*
X1346851D2*
X2824992D1*
X2931027D2*
X3967992D1*
X4074027D2*
X4221992D1*
X4328027D2*
X4937954D1*
X5136015D2*
X5933168D1*
X6172851D2*
X6259747D1*
X1040265Y4359900D2*
X1099181D1*
X1354838D2*
X2824992D1*
X2931027D2*
X3967992D1*
X4074027D2*
X4221992D1*
X4328027D2*
X4937954D1*
X5149856D2*
X5925181D1*
X6180838D2*
X6259747D1*
X1040265Y4334833D2*
X1096452D1*
X1357517D2*
X2824992D1*
X2931027D2*
X3967992D1*
X4074027D2*
X4221992D1*
X4328027D2*
X4937954D1*
X5174909D2*
X5922452D1*
X6183517D2*
X6259747D1*
X1040265Y4309767D2*
X1098734D1*
X1355284D2*
X2824992D1*
X2931027D2*
X3967992D1*
X4074027D2*
X4221992D1*
X4328027D2*
X4941030D1*
X5199961D2*
X5924734D1*
X6181284D2*
X6259747D1*
X1040265Y4284700D2*
X1106225D1*
X1347744D2*
X2824992D1*
X2931027D2*
X3967992D1*
X4074027D2*
X4221992D1*
X4328027D2*
X4951398D1*
X5225014D2*
X5932225D1*
X6173744D2*
X6259747D1*
X1040265Y4259633D2*
X1120116D1*
X1333903D2*
X2824992D1*
X2931027D2*
X3967992D1*
X4074027D2*
X4221992D1*
X4328027D2*
X4972135D1*
X5250116D2*
X5946116D1*
X6159903D2*
X6259747D1*
X1040265Y4234567D2*
X1143532D1*
X1310437D2*
X2824992D1*
X2931027D2*
X3967992D1*
X4074027D2*
X4221992D1*
X4328027D2*
X4997188D1*
X5275169D2*
X5969532D1*
X6136437D2*
X6259747D1*
X1040265Y4209500D2*
X1193736D1*
X1260282D2*
X2824992D1*
X2931027D2*
X3967992D1*
X4074027D2*
X4221992D1*
X4328027D2*
X5022241D1*
X5300222D2*
X6019736D1*
X6086282D2*
X6259747D1*
X1040265Y4184433D2*
X1150824D1*
X1303194D2*
X2824992D1*
X2931027D2*
X3967992D1*
X4074027D2*
X4221992D1*
X4328027D2*
X5047343D1*
X5325324D2*
X5976824D1*
X6129194D2*
X6259747D1*
X1040265Y4159367D2*
X1124234D1*
X1329736D2*
X2824992D1*
X2931027D2*
X3967992D1*
X4074027D2*
X4221992D1*
X4328027D2*
X5072396D1*
X5350377D2*
X5950234D1*
X6155736D2*
X6259747D1*
X1040265Y4134300D2*
X1108656D1*
X1345313D2*
X2824992D1*
X2931027D2*
X3967992D1*
X4074027D2*
X4221992D1*
X4328027D2*
X5097448D1*
X5375430D2*
X5934656D1*
X6171313D2*
X6259747D1*
X1040265Y4109233D2*
X1099925D1*
X1354094D2*
X2824992D1*
X2931027D2*
X3967992D1*
X4074027D2*
X4221992D1*
X4328027D2*
X5122551D1*
X5400482D2*
X5925925D1*
X6180094D2*
X6259747D1*
X1040265Y4084167D2*
X1096552D1*
X1357467D2*
X2824992D1*
X2931027D2*
X3967992D1*
X4074027D2*
X4221992D1*
X4328027D2*
X5147604D1*
X5425585D2*
X5922552D1*
X6183467D2*
X6259747D1*
X1040265Y4059100D2*
X1098139D1*
X1355880D2*
X2824992D1*
X2931027D2*
X3967992D1*
X4074027D2*
X4221992D1*
X4328027D2*
X5172656D1*
X5450637D2*
X5924139D1*
X6181880D2*
X6259747D1*
X1040265Y4034033D2*
X1104886D1*
X1349083D2*
X2824992D1*
X2931027D2*
X3967992D1*
X4074027D2*
X4221992D1*
X4328027D2*
X5197709D1*
X5475690D2*
X5930886D1*
X6175083D2*
X6259747D1*
X1040265Y4008967D2*
X1117834D1*
X1336185D2*
X2824992D1*
X2931027D2*
X3967992D1*
X4074027D2*
X4221992D1*
X4328027D2*
X5222811D1*
X5500793D2*
X5943834D1*
X6162185D2*
X6259747D1*
X1040265Y3983900D2*
X1139613D1*
X1314357D2*
X2824992D1*
X2931027D2*
X3967992D1*
X4074027D2*
X4221992D1*
X4328027D2*
X5247864D1*
X5525845D2*
X5965613D1*
X6140357D2*
X6259747D1*
X1040265Y3958833D2*
X1182475D1*
X1271494D2*
X2824992D1*
X2931027D2*
X3967992D1*
X4074027D2*
X4221992D1*
X4328027D2*
X5272917D1*
X5550898D2*
X6008475D1*
X6097494D2*
X6259747D1*
X1040265Y3933767D2*
X1155785D1*
X1298184D2*
X2824992D1*
X2931027D2*
X3967992D1*
X4074027D2*
X4221992D1*
X4328027D2*
X5298019D1*
X5575951D2*
X5981785D1*
X6124184D2*
X6259747D1*
X1040265Y3908700D2*
X1126962D1*
X1327007D2*
X2824992D1*
X2931027D2*
X3967992D1*
X4074027D2*
X4221992D1*
X4328027D2*
X5323072D1*
X5601053D2*
X5952962D1*
X6153007D2*
X6259747D1*
X1040265Y3883633D2*
X1110293D1*
X1343676D2*
X2824992D1*
X2931027D2*
X3967992D1*
X4074027D2*
X4221992D1*
X4328027D2*
X5348125D1*
X5626106D2*
X5936293D1*
X6169676D2*
X6259747D1*
X1040265Y3858567D2*
X1100719D1*
X1353250D2*
X2824992D1*
X2931027D2*
X3967992D1*
X4074027D2*
X4221992D1*
X4328027D2*
X5373177D1*
X5651159D2*
X5926719D1*
X6179250D2*
X6259747D1*
X1040265Y3833500D2*
X1096700D1*
X1357318D2*
X2824992D1*
X2931027D2*
X3967992D1*
X4074027D2*
X4221992D1*
X4328027D2*
X5398280D1*
X5676261D2*
X5922700D1*
X6183318D2*
X6259747D1*
X1040265Y3808433D2*
X1097643D1*
X1356376D2*
X2824992D1*
X2931027D2*
X3967992D1*
X4074027D2*
X4221992D1*
X4334476D2*
X5423332D1*
X5701314D2*
X5923643D1*
X6182376D2*
X6259747D1*
X1040265Y3783367D2*
X1103695D1*
X1350323D2*
X2824992D1*
X2931027D2*
X3967992D1*
X4074027D2*
X4223133D1*
X4359578D2*
X5448385D1*
X5726366D2*
X5929695D1*
X6176323D2*
X6259747D1*
X1040265Y3758300D2*
X1115701D1*
X1338318D2*
X2824992D1*
X2931027D2*
X3967992D1*
X4074027D2*
X4236775D1*
X4384631D2*
X5473438D1*
X5751419D2*
X5941701D1*
X6164318D2*
X6259747D1*
X1040265Y3733233D2*
X1135991D1*
X1317978D2*
X2824992D1*
X2931027D2*
X3967992D1*
X4092184D2*
X4261828D1*
X4409684D2*
X5498540D1*
X5776521D2*
X5961991D1*
X6143978D2*
X6259747D1*
X1040265Y3708167D2*
X1173893D1*
X1280126D2*
X2824992D1*
X2931027D2*
X3973201D1*
X4117286D2*
X4286881D1*
X4434786D2*
X5523593D1*
X5801574D2*
X5999893D1*
X6106126D2*
X6259747D1*
X1040265Y3683100D2*
X1161341D1*
X1292677D2*
X2824992D1*
X2931027D2*
X3994483D1*
X4142339D2*
X4311983D1*
X4459839D2*
X5548646D1*
X5826627D2*
X6259747D1*
X1040265Y3658033D2*
X1129939D1*
X1324080D2*
X2824992D1*
X2931027D2*
X4019536D1*
X4167392D2*
X4337036D1*
X4484892D2*
X5573748D1*
X5851680D2*
X6259747D1*
X1040265Y3632967D2*
X1112030D1*
X1341939D2*
X2824992D1*
X2931027D2*
X4044589D1*
X4192444D2*
X4362089D1*
X4509944D2*
X5598801D1*
X5876782D2*
X6259747D1*
X1040265Y3607900D2*
X1101661D1*
X1352308D2*
X2824992D1*
X2931027D2*
X4069691D1*
X4217547D2*
X4387191D1*
X4582374D2*
X5623854D1*
X5901835D2*
X6259747D1*
X1040265Y3582833D2*
X1096948D1*
X1357070D2*
X2824992D1*
X2931027D2*
X4094744D1*
X4242600D2*
X4412244D1*
X4604748D2*
X5648906D1*
X5926887D2*
X6259747D1*
X1040265Y3557767D2*
X1097246D1*
X1356773D2*
X2824992D1*
X2931027D2*
X4119797D1*
X4267652D2*
X4437297D1*
X4614471D2*
X5674009D1*
X5951990D2*
X6259747D1*
X1040265Y3532700D2*
X1102554D1*
X1351415D2*
X2824992D1*
X2931027D2*
X4144849D1*
X4292755D2*
X4441960D1*
X4616059D2*
X5699061D1*
X5977043D2*
X6259747D1*
X1040265Y3507633D2*
X1113667D1*
X1340302D2*
X2824992D1*
X2931027D2*
X4169952D1*
X4317807D2*
X4448062D1*
X4609957D2*
X5724114D1*
X6002095D2*
X6259747D1*
X1040265Y3482567D2*
X1132667D1*
X1321352D2*
X2824992D1*
X2931027D2*
X4195004D1*
X4342860D2*
X4464036D1*
X4593933D2*
X5749216D1*
X6027148D2*
X6259747D1*
X1040265Y3457500D2*
X1166749D1*
X1287220D2*
X2824992D1*
X2931027D2*
X4220057D1*
X4367913D2*
X4506799D1*
X4551219D2*
X5774269D1*
X6052250D2*
X6259747D1*
X1040265Y3432433D2*
X1167642D1*
X1286377D2*
X2824992D1*
X2931027D2*
X4245110D1*
X4393015D2*
X5799322D1*
X6112377D2*
X6259747D1*
X1040265Y3407367D2*
X1133064D1*
X1320905D2*
X2824992D1*
X2931027D2*
X4270212D1*
X4418068D2*
X5824375D1*
X6146905D2*
X6259747D1*
X1040265Y3382300D2*
X1113915D1*
X1340054D2*
X2824992D1*
X2931027D2*
X4295265D1*
X4443121D2*
X5849477D1*
X6166054D2*
X6259747D1*
X1040265Y3357233D2*
X1102703D1*
X1351316D2*
X2824992D1*
X2931027D2*
X4320318D1*
X4468223D2*
X5874530D1*
X6177316D2*
X6259747D1*
X1040265Y3332167D2*
X1097296D1*
X1356723D2*
X2824992D1*
X2931027D2*
X4345420D1*
X4493276D2*
X5899582D1*
X6182723D2*
X6259747D1*
X1040265Y3307100D2*
X1096899D1*
X1357070D2*
X2824992D1*
X2931027D2*
X4370473D1*
X4513913D2*
X5922899D1*
X6183070D2*
X6259747D1*
X1040265Y3282033D2*
X1101562D1*
X1352457D2*
X2825141D1*
X2955881D2*
X4395525D1*
X4518527D2*
X5927562D1*
X6178457D2*
X6259747D1*
X1040265Y3256967D2*
X1111831D1*
X1342187D2*
X2834170D1*
X2980984D2*
X4412492D1*
X4518527D2*
X5937831D1*
X6168187D2*
X6259747D1*
X1040265Y3231900D2*
X1129542D1*
X1324477D2*
X2858181D1*
X3006036D2*
X4412492D1*
X4518527D2*
X5955542D1*
X6150477D2*
X6259747D1*
X1040265Y3206833D2*
X1160597D1*
X1293421D2*
X2883233D1*
X3031089D2*
X4412492D1*
X4518527D2*
X5986597D1*
X6119421D2*
X6259747D1*
X1040265Y3181767D2*
X2908286D1*
X3056191D2*
X4412492D1*
X4518527D2*
X6000934D1*
X6105084D2*
X6259747D1*
X1040265Y3156700D2*
X2933388D1*
X3081244D2*
X4412492D1*
X4518527D2*
X5962487D1*
X6143532D2*
X6259747D1*
X1040265Y3131633D2*
X2958441D1*
X3106297D2*
X4412492D1*
X4518527D2*
X5941949D1*
X6164070D2*
X6259747D1*
X1040265Y3106567D2*
X2983494D1*
X3131350D2*
X4232063D1*
X4317956D2*
X4412492D1*
X4518527D2*
X5929844D1*
X6176175D2*
X6259747D1*
X1040265Y3081500D2*
X3008547D1*
X4346432D2*
X4412492D1*
X4518527D2*
X5923693D1*
X6182277D2*
X6259747D1*
X1040265Y3056433D2*
X1179102D1*
X1274917D2*
X3033649D1*
X4358785D2*
X4412492D1*
X4518527D2*
X5922651D1*
X6183318D2*
X6259747D1*
X1040265Y3031367D2*
X1138273D1*
X1315746D2*
X3058702D1*
X4362357D2*
X4412492D1*
X4518527D2*
X5926620D1*
X6179350D2*
X6259747D1*
X1040265Y3006300D2*
X1116991D1*
X1336978D2*
X3083754D1*
X4358388D2*
X4412492D1*
X4518527D2*
X5936095D1*
X6169924D2*
X6259747D1*
X1040265Y2981233D2*
X1104439D1*
X1349579D2*
X4204529D1*
X4345489D2*
X4412492D1*
X4518527D2*
X5952615D1*
X6153404D2*
X6259747D1*
X1040265Y2956167D2*
X1097941D1*
X1356078D2*
X4234493D1*
X4315525D2*
X4412492D1*
X4518527D2*
X5981091D1*
X6124878D2*
X6259747D1*
X1040265Y2931100D2*
X1096601D1*
X1357418D2*
X4412492D1*
X4518527D2*
X6009765D1*
X6096254D2*
X6259747D1*
X1040265Y2906033D2*
X1100223D1*
X1353796D2*
X4412492D1*
X4518527D2*
X5966109D1*
X6139861D2*
X6259747D1*
X1040265Y2880967D2*
X1109252D1*
X1344718D2*
X4412492D1*
X4518527D2*
X5944082D1*
X6161887D2*
X6259747D1*
X1040265Y2855900D2*
X1125226D1*
X1328743D2*
X4412492D1*
X4518527D2*
X5931084D1*
X6174934D2*
X6259747D1*
X1040265Y2830833D2*
X1152610D1*
X1301409D2*
X4412492D1*
X4518527D2*
X5924189D1*
X6181780D2*
X6259747D1*
X1040265Y2805767D2*
X1189123D1*
X1264896D2*
X4412492D1*
X4518527D2*
X5922502D1*
X6183467D2*
X6259747D1*
X1040265Y2780700D2*
X1142043D1*
X1311926D2*
X4412492D1*
X4518527D2*
X5925826D1*
X6180193D2*
X6259747D1*
X1040265Y2755633D2*
X1119223D1*
X1334746D2*
X4412492D1*
X4518527D2*
X5934458D1*
X6171511D2*
X6259747D1*
X1040265Y2730567D2*
X1105729D1*
X1348289D2*
X4412492D1*
X4518527D2*
X5949886D1*
X6156083D2*
X6259747D1*
X1040265Y2705500D2*
X1098486D1*
X1355483D2*
X4412492D1*
X4518527D2*
X5976179D1*
X6129790D2*
X6259747D1*
X1040265Y2680433D2*
X1096502D1*
X1357517D2*
X4412492D1*
X4518527D2*
X6259747D1*
X1040265Y2655367D2*
X1099429D1*
X1354590D2*
X4412492D1*
X4518527D2*
X6259747D1*
X1040265Y2630300D2*
X1107714D1*
X1346305D2*
X4412492D1*
X4518527D2*
X6259747D1*
X1040265Y2605233D2*
X1122597D1*
X1331373D2*
X4412492D1*
X4518527D2*
X6259747D1*
X1040265Y2580167D2*
X1147897D1*
X1306072D2*
X4412492D1*
X4518527D2*
X6259747D1*
X1040265Y2555100D2*
X1204006D1*
X1250013D2*
X4412492D1*
X4518527D2*
X6259747D1*
X1040265Y2530033D2*
X1146211D1*
X1307808D2*
X4412492D1*
X4518527D2*
X6259747D1*
X1040265Y2504967D2*
X1121654D1*
X1332365D2*
X4412492D1*
X4518527D2*
X6259747D1*
X1040265Y2479900D2*
X1107118D1*
X1346851D2*
X4412492D1*
X4518527D2*
X6259747D1*
X1040265Y2454833D2*
X1099131D1*
X1354838D2*
X4412492D1*
X4518527D2*
X6259747D1*
X1040265Y2429767D2*
X1096452D1*
X1357517D2*
X4412492D1*
X4518527D2*
X6259747D1*
X1040265Y2404700D2*
X1098734D1*
X1355235D2*
X4412492D1*
X4518527D2*
X5974393D1*
X6131576D2*
X6259747D1*
X1040265Y2379633D2*
X1106275D1*
X1347744D2*
X4412492D1*
X4518527D2*
X5948894D1*
X6157125D2*
X6259747D1*
X1040265Y2354567D2*
X1120166D1*
X1333853D2*
X4412492D1*
X4518527D2*
X5933863D1*
X6172107D2*
X6259747D1*
X1040265Y2329500D2*
X1143631D1*
X1310338D2*
X4412492D1*
X4518527D2*
X5925528D1*
X6180491D2*
X6259747D1*
X1040265Y2304433D2*
X1193984D1*
X1259985D2*
X4412492D1*
X4518527D2*
X5922502D1*
X6183517D2*
X6259747D1*
X1040265Y2279367D2*
X1150725D1*
X1303294D2*
X4412492D1*
X4518527D2*
X5924437D1*
X6181582D2*
X6259747D1*
X1040265Y2254300D2*
X1124184D1*
X1329835D2*
X4412492D1*
X4518527D2*
X5931581D1*
X6174438D2*
X6259747D1*
X1040265Y2229233D2*
X1108656D1*
X1345362D2*
X4412492D1*
X4518527D2*
X5944975D1*
X6160994D2*
X6259747D1*
X1040265Y2204167D2*
X1099875D1*
X1354094D2*
X4412492D1*
X4518527D2*
X5967647D1*
X6138372D2*
X6259747D1*
X1040265Y2179100D2*
X1096552D1*
X1357467D2*
X4412492D1*
X4518527D2*
X6013833D1*
X6092136D2*
X6259747D1*
X1040265Y2154033D2*
X1098139D1*
X1355830D2*
X4402620D1*
X4518527D2*
X5979156D1*
X6126863D2*
X6259747D1*
X1040265Y2128967D2*
X1104936D1*
X1349083D2*
X4377517D1*
X4516543D2*
X5951523D1*
X6154446D2*
X6259747D1*
X1040265Y2103900D2*
X1117884D1*
X1336135D2*
X4352464D1*
X4500320D2*
X5935450D1*
X6170569D2*
X6259747D1*
X1040265Y2078833D2*
X1139712D1*
X1314307D2*
X4327412D1*
X4475268D2*
X5926272D1*
X6179697D2*
X6259747D1*
X1040265Y2053767D2*
X1182673D1*
X1271345D2*
X4302309D1*
X4450215D2*
X5922601D1*
X6183418D2*
X6259747D1*
X1040265Y2028700D2*
X1155686D1*
X1298333D2*
X4277257D1*
X4425112D2*
X5923891D1*
X6182128D2*
X6259747D1*
X1040265Y2003633D2*
X1126913D1*
X1327057D2*
X4252204D1*
X4400060D2*
X5930291D1*
X6175678D2*
X6259747D1*
X1040265Y1978567D2*
X1110244D1*
X1343725D2*
X4227151D1*
X4375007D2*
X5942792D1*
X6163227D2*
X6259747D1*
X1040265Y1953500D2*
X1100719D1*
X1353250D2*
X4153878D1*
X4349954D2*
X5963876D1*
X6142143D2*
X6259747D1*
X1040265Y1928433D2*
X1096700D1*
X1357318D2*
X4133886D1*
X4324852D2*
X6004109D1*
X6101860D2*
X6259747D1*
X1040265Y1903367D2*
X1097643D1*
X1356326D2*
X4125353D1*
X4299799D2*
X6259747D1*
X1040265Y1878300D2*
X1103695D1*
X1350274D2*
X4124807D1*
X4298162D2*
X6259747D1*
X1040265Y1853233D2*
X1115701D1*
X1338268D2*
X4132050D1*
X4290969D2*
X6259747D1*
X1040265Y1828167D2*
X1136090D1*
X1317928D2*
X4149860D1*
X4273159D2*
X6259747D1*
X1040265Y1803100D2*
X1174041D1*
X1279928D2*
X6259747D1*
X1040265Y1778033D2*
X1161242D1*
X1292777D2*
X6259747D1*
X1040265Y1752967D2*
X1129839D1*
X1324130D2*
X6259747D1*
X1040265Y1727900D2*
X1112030D1*
X1341989D2*
X6259747D1*
X1040265Y1702833D2*
X1101661D1*
X1352357D2*
X6259747D1*
X1040265Y1677767D2*
X1096948D1*
X1357070D2*
X6259747D1*
X1040265Y1652700D2*
X1097246D1*
X1356773D2*
X6259747D1*
X1040265Y1627633D2*
X1102604D1*
X1351415D2*
X6259747D1*
X1040265Y1602567D2*
X1113716D1*
X1340302D2*
X6259747D1*
X1040265Y1577500D2*
X1132717D1*
X1321302D2*
X6259747D1*
X1040265Y1552433D2*
X1166898D1*
X1287121D2*
X6259747D1*
X1040265Y1527367D2*
X1167493D1*
X1286526D2*
X6259747D1*
X1040265Y1502300D2*
X1133014D1*
X1321004D2*
X6259747D1*
X1040265Y1477233D2*
X1113915D1*
X1340104D2*
X6259747D1*
X1040265Y1452167D2*
X1102703D1*
X1351316D2*
X6259747D1*
X1040265Y1427100D2*
X1097296D1*
X1356723D2*
X6259747D1*
X1040265Y1402033D2*
X1096899D1*
X1357070D2*
X6259747D1*
X1040265Y1376967D2*
X1101562D1*
X1352457D2*
X6259747D1*
X1040265Y1351900D2*
X1111831D1*
X1342138D2*
X6259747D1*
X1040265Y1326833D2*
X1129591D1*
X1324427D2*
X6259747D1*
X1040265Y1301767D2*
X1160697D1*
X1293322D2*
X6259747D1*
X1040265Y1276700D2*
X1174736D1*
X1279233D2*
X6259747D1*
X1040265Y1251633D2*
X1136388D1*
X1317581D2*
X6259747D1*
X1040265Y1226567D2*
X1115899D1*
X1338070D2*
X6259747D1*
X1040265Y1201500D2*
X1103795D1*
X1350175D2*
X6259747D1*
X1040265Y1176433D2*
X1097693D1*
X1356326D2*
X6259747D1*
X1040265Y1151367D2*
X1096700D1*
X1357318D2*
X6259747D1*
X1040265Y1126300D2*
X1100669D1*
X1353350D2*
X6259747D1*
X1040414Y1101233D2*
X1110095D1*
X1343874D2*
X6259598D1*
X1045920Y1076167D2*
X1126664D1*
X1327354D2*
X6254091D1*
X1065318Y1051100D2*
X1155239D1*
X1298779D2*
X6234644D1*
X4890684Y5032516D2*
X5196016D1*
Y4714484D1*
X5133459D1*
X5133516Y4373686D1*
X6061820Y3445425D1*
X6073023Y3444170D1*
X6082880Y3442209D1*
X6092553Y3439481D1*
X6101982Y3436003D1*
X6111109Y3431795D1*
X6119878Y3426885D1*
X6128234Y3421301D1*
X6136127Y3415079D1*
X6143507Y3408257D1*
X6150329Y3400877D1*
X6156551Y3392984D1*
X6162135Y3384628D1*
X6167045Y3375859D1*
X6171253Y3366732D1*
X6174731Y3357303D1*
X6177459Y3347630D1*
X6179420Y3337773D1*
X6180601Y3327792D1*
X6180996Y3317750D1*
X6180601Y3307708D1*
X6179420Y3297727D1*
X6177459Y3287870D1*
X6174731Y3278197D1*
X6171253Y3268768D1*
X6167045Y3259641D1*
X6162135Y3250872D1*
X6156551Y3242516D1*
X6150329Y3234623D1*
X6143507Y3227243D1*
X6136127Y3220421D1*
X6128234Y3214199D1*
X6119878Y3208615D1*
X6111109Y3203705D1*
X6101982Y3199497D1*
X6092553Y3196019D1*
X6082880Y3193291D1*
X6068540Y3190799D1*
X6082880Y3188209D1*
X6092553Y3185481D1*
X6101982Y3182003D1*
X6111109Y3177795D1*
X6119878Y3172885D1*
X6128234Y3167301D1*
X6136127Y3161079D1*
X6143507Y3154257D1*
X6150329Y3146877D1*
X6156551Y3138984D1*
X6162135Y3130628D1*
X6167045Y3121859D1*
X6171253Y3112732D1*
X6174731Y3103303D1*
X6177459Y3093630D1*
X6179420Y3083773D1*
X6180601Y3073792D1*
X6180996Y3063750D1*
X6180601Y3053708D1*
X6179420Y3043727D1*
X6177459Y3033870D1*
X6174731Y3024197D1*
X6171253Y3014768D1*
X6167045Y3005641D1*
X6162135Y2996872D1*
X6156551Y2988516D1*
X6150329Y2980623D1*
X6143507Y2973243D1*
X6136127Y2966421D1*
X6128234Y2960199D1*
X6119878Y2954615D1*
X6111109Y2949705D1*
X6101982Y2945497D1*
X6092553Y2942019D1*
X6082880Y2939291D1*
X6068540Y2936799D1*
X6082880Y2934209D1*
X6092553Y2931481D1*
X6101982Y2928003D1*
X6111109Y2923795D1*
X6119878Y2918885D1*
X6128234Y2913301D1*
X6136127Y2907079D1*
X6143507Y2900257D1*
X6150329Y2892877D1*
X6156551Y2884984D1*
X6162135Y2876628D1*
X6167045Y2867859D1*
X6171253Y2858732D1*
X6174731Y2849303D1*
X6177459Y2839630D1*
X6179420Y2829773D1*
X6180601Y2819792D1*
X6180996Y2809750D1*
X6180601Y2799708D1*
X6179420Y2789727D1*
X6177459Y2779870D1*
X6174731Y2770197D1*
X6171253Y2760768D1*
X6167045Y2751641D1*
X6162135Y2742872D1*
X6156551Y2734516D1*
X6150329Y2726623D1*
X6143507Y2719243D1*
X6136127Y2712421D1*
X6128234Y2706199D1*
X6119878Y2700615D1*
X6111109Y2695705D1*
X6101982Y2691497D1*
X6092553Y2688019D1*
X6082880Y2685291D1*
X6073023Y2683330D1*
X6063042Y2682149D1*
X6053000Y2681754D1*
X6042958Y2682149D1*
X6032977Y2683330D1*
X6023120Y2685291D1*
X6013447Y2688019D1*
X6004018Y2691497D1*
X5994891Y2695705D1*
X5986122Y2700615D1*
X5977766Y2706199D1*
X5969873Y2712421D1*
X5962493Y2719243D1*
X5955671Y2726623D1*
X5949449Y2734516D1*
X5943865Y2742872D1*
X5938955Y2751641D1*
X5934747Y2760768D1*
X5931269Y2770197D1*
X5928541Y2779870D1*
X5926580Y2789727D1*
X5925399Y2799708D1*
X5925004Y2809750D1*
X5925399Y2819792D1*
X5926580Y2829773D1*
X5928541Y2839630D1*
X5931269Y2849303D1*
X5934747Y2858732D1*
X5938955Y2867859D1*
X5943865Y2876628D1*
X5949449Y2884984D1*
X5955671Y2892877D1*
X5962493Y2900257D1*
X5969873Y2907079D1*
X5977766Y2913301D1*
X5986122Y2918885D1*
X5994891Y2923795D1*
X6004018Y2928003D1*
X6013447Y2931481D1*
X6023120Y2934209D1*
X6037460Y2936701D1*
X6023120Y2939291D1*
X6013447Y2942019D1*
X6004018Y2945497D1*
X5994891Y2949705D1*
X5986122Y2954615D1*
X5977766Y2960199D1*
X5969873Y2966421D1*
X5962493Y2973243D1*
X5955671Y2980623D1*
X5949449Y2988516D1*
X5943865Y2996872D1*
X5938955Y3005641D1*
X5934747Y3014768D1*
X5931269Y3024197D1*
X5928541Y3033870D1*
X5926580Y3043727D1*
X5925399Y3053708D1*
X5925004Y3063750D1*
X5925399Y3073792D1*
X5926580Y3083773D1*
X5928541Y3093630D1*
X5931269Y3103303D1*
X5934747Y3112732D1*
X5938955Y3121859D1*
X5943865Y3130628D1*
X5949449Y3138984D1*
X5955671Y3146877D1*
X5962493Y3154257D1*
X5969873Y3161079D1*
X5977766Y3167301D1*
X5986122Y3172885D1*
X5994891Y3177795D1*
X6004018Y3182003D1*
X6013447Y3185481D1*
X6023120Y3188209D1*
X6037460Y3190701D1*
X6023120Y3193291D1*
X6013447Y3196019D1*
X6004018Y3199497D1*
X5994891Y3203705D1*
X5986122Y3208615D1*
X5977766Y3214199D1*
X5969873Y3220421D1*
X5962493Y3227243D1*
X5955671Y3234623D1*
X5949449Y3242516D1*
X5943865Y3250872D1*
X5938955Y3259641D1*
X5934747Y3268768D1*
X5931269Y3278197D1*
X5928541Y3287870D1*
X5926580Y3297727D1*
X5925351Y3308924D1*
X4968753Y4265503D1*
X4958917Y4277019D1*
X4951003Y4289933D1*
X4945208Y4303925D1*
X4941672Y4318652D1*
X4940484Y4333750D1*
X4940517Y4334608D1*
X4940484Y4714502D1*
X4877984Y4714484D1*
Y5032516D1*
X4890684D1*
X4687526Y4861024D2*
X4686058Y4848624D1*
X4683622Y4836378D1*
X4680233Y4824361D1*
X4675912Y4812647D1*
X4670684Y4801308D1*
X4664583Y4790414D1*
X4657647Y4780033D1*
X4649917Y4770227D1*
X4641441Y4761059D1*
X4632273Y4752583D1*
X4622467Y4744853D1*
X4612086Y4737917D1*
X4601192Y4731816D1*
X4589853Y4726588D1*
X4578139Y4722267D1*
X4566122Y4718878D1*
X4553876Y4716442D1*
X4541476Y4714974D1*
X4529000Y4714484D1*
X4516524Y4714974D1*
X4504124Y4716442D1*
X4491878Y4718878D1*
X4479861Y4722267D1*
X4468147Y4726588D1*
X4456808Y4731816D1*
X4445914Y4737917D1*
X4435533Y4744853D1*
X4425727Y4752583D1*
X4416559Y4761059D1*
X4408083Y4770227D1*
X4400353Y4780033D1*
X4393417Y4790414D1*
X4387316Y4801308D1*
X4382088Y4812647D1*
X4377767Y4824361D1*
X4374378Y4836378D1*
X4371942Y4848624D1*
X4370474Y4861024D1*
X4369984Y4873500D1*
X4370474Y4885976D1*
X4371942Y4898376D1*
X4374378Y4910622D1*
X4377767Y4922639D1*
X4382088Y4934353D1*
X4387316Y4945692D1*
X4393417Y4956586D1*
X4400353Y4966967D1*
X4408083Y4976773D1*
X4416559Y4985941D1*
X4425727Y4994417D1*
X4435533Y5002147D1*
X4445914Y5009083D1*
X4456808Y5015184D1*
X4468147Y5020412D1*
X4479861Y5024733D1*
X4491878Y5028122D1*
X4504124Y5030558D1*
X4516524Y5032026D1*
X4529000Y5032516D1*
X4541476Y5032026D1*
X4553876Y5030558D1*
X4566122Y5028122D1*
X4578139Y5024733D1*
X4589853Y5020412D1*
X4601192Y5015184D1*
X4612086Y5009083D1*
X4622467Y5002147D1*
X4632273Y4994417D1*
X4641441Y4985941D1*
X4649917Y4976773D1*
X4657647Y4966967D1*
X4664583Y4956586D1*
X4670684Y4945692D1*
X4675912Y4934353D1*
X4680233Y4922639D1*
X4683622Y4910622D1*
X4686058Y4898376D1*
X4687526Y4885976D1*
X4688016Y4873500D1*
X4687526Y4861024D1*
X4179526D2*
X4178058Y4848624D1*
X4175622Y4836378D1*
X4172233Y4824361D1*
X4167912Y4812647D1*
X4162684Y4801308D1*
X4156583Y4790414D1*
X4149647Y4780033D1*
X4141917Y4770227D1*
X4133441Y4761059D1*
X4124273Y4752583D1*
X4114467Y4744853D1*
X4104086Y4737917D1*
X4093192Y4731816D1*
X4081853Y4726588D1*
X4071466Y4722756D1*
X4071516Y3751386D1*
X4503913Y3318808D1*
X4508572Y3312395D1*
X4512171Y3305332D1*
X4514620Y3297793D1*
X4515861Y3289963D1*
X4516016Y3260600D1*
X4515861Y2139037D1*
X4514620Y2131207D1*
X4512171Y2123668D1*
X4508572Y2116605D1*
X4503913Y2110192D1*
X4483260Y2089319D1*
X4295411Y1901470D1*
X4296316Y1889000D1*
X4295272Y1875732D1*
X4292165Y1862790D1*
X4287072Y1850494D1*
X4280118Y1839146D1*
X4271474Y1829026D1*
X4261354Y1820382D1*
X4250006Y1813428D1*
X4237710Y1808335D1*
X4224768Y1805228D1*
X4211500Y1804184D1*
X4198232Y1805228D1*
X4185290Y1808335D1*
X4172994Y1813428D1*
X4161646Y1820382D1*
X4151526Y1829026D1*
X4142882Y1839146D1*
X4135928Y1850494D1*
X4130835Y1862790D1*
X4127728Y1875732D1*
X4126684Y1889000D1*
X4127728Y1902268D1*
X4130835Y1915210D1*
X4135928Y1927506D1*
X4142882Y1938854D1*
X4151526Y1948974D1*
X4161646Y1957618D1*
X4172994Y1964572D1*
X4185290Y1969665D1*
X4198232Y1972772D1*
X4211500Y1973816D1*
X4223967Y1972867D1*
X4414984Y2163925D1*
Y3265114D1*
X3982587Y3697692D1*
X3977928Y3704105D1*
X3974329Y3711168D1*
X3971880Y3718707D1*
X3970639Y3726537D1*
X3970484Y3755900D1*
Y4722737D1*
X3960147Y4726588D1*
X3948808Y4731816D1*
X3937914Y4737917D1*
X3927533Y4744853D1*
X3917727Y4752583D1*
X3908559Y4761059D1*
X3900083Y4770227D1*
X3892353Y4780033D1*
X3885417Y4790414D1*
X3879316Y4801308D1*
X3874088Y4812647D1*
X3869767Y4824361D1*
X3866378Y4836378D1*
X3863942Y4848624D1*
X3862474Y4861024D1*
X3861984Y4873500D1*
X3862474Y4885976D1*
X3863942Y4898376D1*
X3866378Y4910622D1*
X3869767Y4922639D1*
X3874088Y4934353D1*
X3879316Y4945692D1*
X3885417Y4956586D1*
X3892353Y4966967D1*
X3900083Y4976773D1*
X3908559Y4985941D1*
X3917727Y4994417D1*
X3927533Y5002147D1*
X3937914Y5009083D1*
X3948808Y5015184D1*
X3960147Y5020412D1*
X3971861Y5024733D1*
X3983878Y5028122D1*
X3996124Y5030558D1*
X4008524Y5032026D1*
X4021000Y5032516D1*
X4033476Y5032026D1*
X4045876Y5030558D1*
X4058122Y5028122D1*
X4070139Y5024733D1*
X4081853Y5020412D1*
X4093192Y5015184D1*
X4104086Y5009083D1*
X4114467Y5002147D1*
X4124273Y4994417D1*
X4133441Y4985941D1*
X4141917Y4976773D1*
X4149647Y4966967D1*
X4156583Y4956586D1*
X4162684Y4945692D1*
X4167912Y4934353D1*
X4172233Y4922639D1*
X4175622Y4910622D1*
X4178058Y4898376D1*
X4179526Y4885976D1*
X4180016Y4873500D1*
X4179526Y4861024D1*
X3239684Y5032516D2*
X3545016D1*
Y4714484D1*
X3226984D1*
Y5032516D1*
X3239684D1*
X3036526Y4861024D2*
X3035058Y4848624D1*
X3032622Y4836378D1*
X3029233Y4824361D1*
X3024912Y4812647D1*
X3019684Y4801308D1*
X3013583Y4790414D1*
X3006647Y4780033D1*
X2998917Y4770227D1*
X2990441Y4761059D1*
X2981273Y4752583D1*
X2971467Y4744853D1*
X2961086Y4737917D1*
X2950192Y4731816D1*
X2938853Y4726588D1*
X2928466Y4722756D1*
X2928516Y3306886D1*
X3152925Y3082516D1*
X4206886D1*
X4215026Y3091974D1*
X4225146Y3100618D1*
X4236494Y3107572D1*
X4248790Y3112665D1*
X4261732Y3115772D1*
X4275000Y3116816D1*
X4288268Y3115772D1*
X4301210Y3112665D1*
X4313506Y3107572D1*
X4324854Y3100618D1*
X4334974Y3091974D1*
X4343618Y3081854D1*
X4350572Y3070506D1*
X4355665Y3058210D1*
X4358772Y3045268D1*
X4359816Y3032000D1*
X4358772Y3018732D1*
X4355665Y3005790D1*
X4350572Y2993494D1*
X4343618Y2982146D1*
X4334974Y2972026D1*
X4324854Y2963382D1*
X4313506Y2956428D1*
X4301210Y2951335D1*
X4288268Y2948228D1*
X4275000Y2947184D1*
X4261732Y2948228D1*
X4248790Y2951335D1*
X4236494Y2956428D1*
X4225146Y2963382D1*
X4215026Y2972026D1*
X4206882Y2981513D1*
X3128037Y2981640D1*
X3120207Y2982880D1*
X3112668Y2985329D1*
X3105605Y2988928D1*
X3099192Y2993587D1*
X3078319Y3014240D1*
X2839587Y3253192D1*
X2834928Y3259605D1*
X2831329Y3266668D1*
X2828880Y3274207D1*
X2827640Y3282037D1*
X2827484Y3311400D1*
Y4722737D1*
X2817147Y4726588D1*
X2805808Y4731816D1*
X2794914Y4737917D1*
X2784533Y4744853D1*
X2774727Y4752583D1*
X2765559Y4761059D1*
X2757083Y4770227D1*
X2749353Y4780033D1*
X2742417Y4790414D1*
X2736316Y4801308D1*
X2731088Y4812647D1*
X2726767Y4824361D1*
X2723378Y4836378D1*
X2720942Y4848624D1*
X2719474Y4861024D1*
X2718984Y4873500D1*
X2719474Y4885976D1*
X2720942Y4898376D1*
X2723378Y4910622D1*
X2726767Y4922639D1*
X2731088Y4934353D1*
X2736316Y4945692D1*
X2742417Y4956586D1*
X2749353Y4966967D1*
X2757083Y4976773D1*
X2765559Y4985941D1*
X2774727Y4994417D1*
X2784533Y5002147D1*
X2794914Y5009083D1*
X2805808Y5015184D1*
X2817147Y5020412D1*
X2828861Y5024733D1*
X2840878Y5028122D1*
X2853124Y5030558D1*
X2865524Y5032026D1*
X2878000Y5032516D1*
X2890476Y5032026D1*
X2902876Y5030558D1*
X2915122Y5028122D1*
X2927139Y5024733D1*
X2938853Y5020412D1*
X2950192Y5015184D1*
X2961086Y5009083D1*
X2971467Y5002147D1*
X2981273Y4994417D1*
X2990441Y4985941D1*
X2998917Y4976773D1*
X3006647Y4966967D1*
X3013583Y4956586D1*
X3019684Y4945692D1*
X3024912Y4934353D1*
X3029233Y4922639D1*
X3032622Y4910622D1*
X3035058Y4898376D1*
X3036526Y4885976D1*
X3037016Y4873500D1*
X3036526Y4861024D1*
X2528526D2*
X2527058Y4848624D1*
X2524622Y4836378D1*
X2521233Y4824361D1*
X2516912Y4812647D1*
X2511684Y4801308D1*
X2505583Y4790414D1*
X2498647Y4780033D1*
X2490917Y4770227D1*
X2482441Y4761059D1*
X2473273Y4752583D1*
X2463467Y4744853D1*
X2453086Y4737917D1*
X2442192Y4731816D1*
X2430853Y4726588D1*
X2419139Y4722267D1*
X2407122Y4718878D1*
X2394876Y4716442D1*
X2382476Y4714974D1*
X2370000Y4714484D1*
X2357524Y4714974D1*
X2345124Y4716442D1*
X2332878Y4718878D1*
X2320861Y4722267D1*
X2309147Y4726588D1*
X2297808Y4731816D1*
X2286914Y4737917D1*
X2276533Y4744853D1*
X2266727Y4752583D1*
X2257559Y4761059D1*
X2249083Y4770227D1*
X2241353Y4780033D1*
X2234417Y4790414D1*
X2228316Y4801308D1*
X2223088Y4812647D1*
X2218767Y4824361D1*
X2215378Y4836378D1*
X2212942Y4848624D1*
X2211474Y4861024D1*
X2210984Y4873500D1*
X2211474Y4885976D1*
X2212942Y4898376D1*
X2215378Y4910622D1*
X2218767Y4922639D1*
X2223088Y4934353D1*
X2228316Y4945692D1*
X2234417Y4956586D1*
X2241353Y4966967D1*
X2249083Y4976773D1*
X2257559Y4985941D1*
X2266727Y4994417D1*
X2276533Y5002147D1*
X2286914Y5009083D1*
X2297808Y5015184D1*
X2309147Y5020412D1*
X2320861Y5024733D1*
X2332878Y5028122D1*
X2345124Y5030558D1*
X2357524Y5032026D1*
X2370000Y5032516D1*
X2382476Y5032026D1*
X2394876Y5030558D1*
X2407122Y5028122D1*
X2419139Y5024733D1*
X2430853Y5020412D1*
X2440907Y5015776D1*
X2591192Y5165913D1*
X2597605Y5170572D1*
X2604668Y5174171D1*
X2612207Y5176620D1*
X2620037Y5177860D1*
X2649400Y5178016D1*
X4088463Y5177860D1*
X4096293Y5176620D1*
X4103832Y5174171D1*
X4110895Y5170572D1*
X4117308Y5165913D1*
X4138181Y5145260D1*
X4313413Y4969808D1*
X4318072Y4963395D1*
X4321671Y4956332D1*
X4324120Y4948793D1*
X4325360Y4940963D1*
X4325516Y4911600D1*
Y3814886D1*
X4516530Y3623911D1*
X4529000Y3624816D1*
X4542268Y3623772D1*
X4555210Y3620665D1*
X4567506Y3615572D1*
X4578854Y3608618D1*
X4588974Y3599974D1*
X4597618Y3589854D1*
X4604572Y3578506D1*
X4609665Y3566210D1*
X4612772Y3553268D1*
X4613816Y3540000D1*
X4612772Y3526732D1*
X4609665Y3513790D1*
X4604572Y3501494D1*
X4597618Y3490146D1*
X4588974Y3480026D1*
X4578854Y3471382D1*
X4567506Y3464428D1*
X4555210Y3459335D1*
X4542268Y3456228D1*
X4529000Y3455184D1*
X4515732Y3456228D1*
X4502790Y3459335D1*
X4490494Y3464428D1*
X4479146Y3471382D1*
X4469026Y3480026D1*
X4460382Y3490146D1*
X4453428Y3501494D1*
X4448335Y3513790D1*
X4445228Y3526732D1*
X4444184Y3540000D1*
X4445133Y3552467D1*
X4236587Y3761192D1*
X4231928Y3767605D1*
X4228329Y3774668D1*
X4225880Y3782207D1*
X4224640Y3790037D1*
X4224484Y3819400D1*
Y4916114D1*
X4063568Y5076991D1*
X2644886Y5076984D1*
X2512353Y4944412D1*
X2516912Y4934353D1*
X2521233Y4922639D1*
X2524622Y4910622D1*
X2527058Y4898376D1*
X2528526Y4885976D1*
X2529016Y4873500D1*
X2528526Y4861024D1*
X6180601Y2037708D2*
X6179420Y2027727D1*
X6177459Y2017870D1*
X6174731Y2008197D1*
X6171253Y1998768D1*
X6167045Y1989641D1*
X6162135Y1980872D1*
X6156551Y1972516D1*
X6150329Y1964623D1*
X6143507Y1957243D1*
X6136127Y1950421D1*
X6128234Y1944199D1*
X6119878Y1938615D1*
X6111109Y1933705D1*
X6101982Y1929497D1*
X6092553Y1926019D1*
X6082880Y1923291D1*
X6073023Y1921330D1*
X6063042Y1920149D1*
X6053000Y1919754D1*
X6042958Y1920149D1*
X6032977Y1921330D1*
X6023120Y1923291D1*
X6013447Y1926019D1*
X6004018Y1929497D1*
X5994891Y1933705D1*
X5986122Y1938615D1*
X5977766Y1944199D1*
X5969873Y1950421D1*
X5962493Y1957243D1*
X5955671Y1964623D1*
X5949449Y1972516D1*
X5943865Y1980872D1*
X5938955Y1989641D1*
X5934747Y1998768D1*
X5931269Y2008197D1*
X5928541Y2017870D1*
X5926580Y2027727D1*
X5925399Y2037708D1*
X5925004Y2047750D1*
X5925399Y2057792D1*
X5926580Y2067773D1*
X5928541Y2077630D1*
X5931269Y2087303D1*
X5934747Y2096732D1*
X5938955Y2105859D1*
X5943865Y2114628D1*
X5949449Y2122984D1*
X5955671Y2130877D1*
X5962493Y2138257D1*
X5969873Y2145079D1*
X5977766Y2151301D1*
X5986122Y2156885D1*
X5994891Y2161795D1*
X6004018Y2166003D1*
X6013447Y2169481D1*
X6023120Y2172209D1*
X6037460Y2174701D1*
X6023120Y2177291D1*
X6013447Y2180019D1*
X6004018Y2183497D1*
X5994891Y2187705D1*
X5986122Y2192615D1*
X5977766Y2198199D1*
X5969873Y2204421D1*
X5962493Y2211243D1*
X5955671Y2218623D1*
X5949449Y2226516D1*
X5943865Y2234872D1*
X5938955Y2243641D1*
X5934747Y2252768D1*
X5931269Y2262197D1*
X5928541Y2271870D1*
X5926580Y2281727D1*
X5925399Y2291708D1*
X5925004Y2301750D1*
X5925399Y2311792D1*
X5926580Y2321773D1*
X5928541Y2331630D1*
X5931269Y2341303D1*
X5934747Y2350732D1*
X5938955Y2359859D1*
X5943865Y2368628D1*
X5949449Y2376984D1*
X5955671Y2384877D1*
X5962493Y2392257D1*
X5969873Y2399079D1*
X5977766Y2405301D1*
X5986122Y2410885D1*
X5994891Y2415795D1*
X6004018Y2420003D1*
X6013447Y2423481D1*
X6023120Y2426209D1*
X6032977Y2428170D1*
X6042958Y2429351D1*
X6053000Y2429746D1*
X6063042Y2429351D1*
X6073023Y2428170D1*
X6082880Y2426209D1*
X6092553Y2423481D1*
X6101982Y2420003D1*
X6111109Y2415795D1*
X6119878Y2410885D1*
X6128234Y2405301D1*
X6136127Y2399079D1*
X6143507Y2392257D1*
X6150329Y2384877D1*
X6156551Y2376984D1*
X6162135Y2368628D1*
X6167045Y2359859D1*
X6171253Y2350732D1*
X6174731Y2341303D1*
X6177459Y2331630D1*
X6179420Y2321773D1*
X6180601Y2311792D1*
X6180996Y2301750D1*
X6180601Y2291708D1*
X6179420Y2281727D1*
X6177459Y2271870D1*
X6174731Y2262197D1*
X6171253Y2252768D1*
X6167045Y2243641D1*
X6162135Y2234872D1*
X6156551Y2226516D1*
X6150329Y2218623D1*
X6143507Y2211243D1*
X6136127Y2204421D1*
X6128234Y2198199D1*
X6119878Y2192615D1*
X6111109Y2187705D1*
X6101982Y2183497D1*
X6092553Y2180019D1*
X6082880Y2177291D1*
X6068540Y2174799D1*
X6082880Y2172209D1*
X6092553Y2169481D1*
X6101982Y2166003D1*
X6111109Y2161795D1*
X6119878Y2156885D1*
X6128234Y2151301D1*
X6136127Y2145079D1*
X6143507Y2138257D1*
X6150329Y2130877D1*
X6156551Y2122984D1*
X6162135Y2114628D1*
X6167045Y2105859D1*
X6171253Y2096732D1*
X6174731Y2087303D1*
X6177459Y2077630D1*
X6179420Y2067773D1*
X6180601Y2057792D1*
X6180996Y2047750D1*
X6180601Y2037708D1*
Y3815708D2*
X6179420Y3805727D1*
X6177459Y3795870D1*
X6174731Y3786197D1*
X6171253Y3776768D1*
X6167045Y3767641D1*
X6162135Y3758872D1*
X6156551Y3750516D1*
X6150329Y3742623D1*
X6143507Y3735243D1*
X6136127Y3728421D1*
X6128234Y3722199D1*
X6119878Y3716615D1*
X6111109Y3711705D1*
X6101982Y3707497D1*
X6092553Y3704019D1*
X6082880Y3701291D1*
X6073023Y3699330D1*
X6063042Y3698149D1*
X6053000Y3697754D1*
X6042958Y3698149D1*
X6032977Y3699330D1*
X6023120Y3701291D1*
X6013447Y3704019D1*
X6004018Y3707497D1*
X5994891Y3711705D1*
X5986122Y3716615D1*
X5977766Y3722199D1*
X5969873Y3728421D1*
X5962493Y3735243D1*
X5955671Y3742623D1*
X5949449Y3750516D1*
X5943865Y3758872D1*
X5938955Y3767641D1*
X5934747Y3776768D1*
X5931269Y3786197D1*
X5928541Y3795870D1*
X5926580Y3805727D1*
X5925399Y3815708D1*
X5925004Y3825750D1*
X5925399Y3835792D1*
X5926580Y3845773D1*
X5928541Y3855630D1*
X5931269Y3865303D1*
X5934747Y3874732D1*
X5938955Y3883859D1*
X5943865Y3892628D1*
X5949449Y3900984D1*
X5955671Y3908877D1*
X5962493Y3916257D1*
X5969873Y3923079D1*
X5977766Y3929301D1*
X5986122Y3934885D1*
X5994891Y3939795D1*
X6004018Y3944003D1*
X6013447Y3947481D1*
X6023120Y3950209D1*
X6037460Y3952701D1*
X6023120Y3955291D1*
X6013447Y3958019D1*
X6004018Y3961497D1*
X5994891Y3965705D1*
X5986122Y3970615D1*
X5977766Y3976199D1*
X5969873Y3982421D1*
X5962493Y3989243D1*
X5955671Y3996623D1*
X5949449Y4004516D1*
X5943865Y4012872D1*
X5938955Y4021641D1*
X5934747Y4030768D1*
X5931269Y4040197D1*
X5928541Y4049870D1*
X5926580Y4059727D1*
X5925399Y4069708D1*
X5925004Y4079750D1*
X5925399Y4089792D1*
X5926580Y4099773D1*
X5928541Y4109630D1*
X5931269Y4119303D1*
X5934747Y4128732D1*
X5938955Y4137859D1*
X5943865Y4146628D1*
X5949449Y4154984D1*
X5955671Y4162877D1*
X5962493Y4170257D1*
X5969873Y4177079D1*
X5977766Y4183301D1*
X5986122Y4188885D1*
X5994891Y4193795D1*
X6004018Y4198003D1*
X6013447Y4201481D1*
X6023120Y4204209D1*
X6037460Y4206701D1*
X6023120Y4209291D1*
X6013447Y4212019D1*
X6004018Y4215497D1*
X5994891Y4219705D1*
X5986122Y4224615D1*
X5977766Y4230199D1*
X5969873Y4236421D1*
X5962493Y4243243D1*
X5955671Y4250623D1*
X5949449Y4258516D1*
X5943865Y4266872D1*
X5938955Y4275641D1*
X5934747Y4284768D1*
X5931269Y4294197D1*
X5928541Y4303870D1*
X5926580Y4313727D1*
X5925399Y4323708D1*
X5925004Y4333750D1*
X5925399Y4343792D1*
X5926580Y4353773D1*
X5928541Y4363630D1*
X5931269Y4373303D1*
X5934747Y4382732D1*
X5938955Y4391859D1*
X5943865Y4400628D1*
X5949449Y4408984D1*
X5955671Y4416877D1*
X5962493Y4424257D1*
X5969873Y4431079D1*
X5977766Y4437301D1*
X5986122Y4442885D1*
X5994891Y4447795D1*
X6004018Y4452003D1*
X6013447Y4455481D1*
X6023120Y4458209D1*
X6037460Y4460701D1*
X6023120Y4463291D1*
X6013447Y4466019D1*
X6004018Y4469497D1*
X5994891Y4473705D1*
X5986122Y4478615D1*
X5977766Y4484199D1*
X5969873Y4490421D1*
X5962493Y4497243D1*
X5955671Y4504623D1*
X5949449Y4512516D1*
X5943865Y4520872D1*
X5938955Y4529641D1*
X5934747Y4538768D1*
X5931269Y4548197D1*
X5928541Y4557870D1*
X5926580Y4567727D1*
X5925399Y4577708D1*
X5925004Y4587750D1*
X5925399Y4597792D1*
X5926580Y4607773D1*
X5928541Y4617630D1*
X5931269Y4627303D1*
X5934747Y4636732D1*
X5938955Y4645859D1*
X5943865Y4654628D1*
X5949449Y4662984D1*
X5955671Y4670877D1*
X5962493Y4678257D1*
X5969873Y4685079D1*
X5977766Y4691301D1*
X5986122Y4696885D1*
X5994891Y4701795D1*
X6004018Y4706003D1*
X6013447Y4709481D1*
X6023120Y4712209D1*
X6037460Y4714701D1*
X6023120Y4717291D1*
X6013447Y4720019D1*
X6004018Y4723497D1*
X5994891Y4727705D1*
X5986122Y4732615D1*
X5977766Y4738199D1*
X5969873Y4744421D1*
X5962493Y4751243D1*
X5955671Y4758623D1*
X5949449Y4766516D1*
X5943865Y4774872D1*
X5938955Y4783641D1*
X5934747Y4792768D1*
X5931269Y4802197D1*
X5928541Y4811870D1*
X5926580Y4821727D1*
X5925399Y4831708D1*
X5925004Y4841750D1*
X5925399Y4851792D1*
X5926580Y4861773D1*
X5928541Y4871630D1*
X5931269Y4881303D1*
X5934747Y4890732D1*
X5938955Y4899859D1*
X5943865Y4908628D1*
X5949449Y4916984D1*
X5955671Y4924877D1*
X5962493Y4932257D1*
X5969873Y4939079D1*
X5977766Y4945301D1*
X5986122Y4950885D1*
X5994891Y4955795D1*
X6004018Y4960003D1*
X6013447Y4963481D1*
X6023120Y4966209D1*
X6037460Y4968701D1*
X6023120Y4971291D1*
X6013447Y4974019D1*
X6004018Y4977497D1*
X5994891Y4981705D1*
X5986122Y4986615D1*
X5977766Y4992199D1*
X5969873Y4998421D1*
X5962493Y5005243D1*
X5955671Y5012623D1*
X5949449Y5020516D1*
X5943865Y5028872D1*
X5938955Y5037641D1*
X5934747Y5046768D1*
X5931269Y5056197D1*
X5928541Y5065870D1*
X5926580Y5075727D1*
X5925399Y5085708D1*
X5925004Y5095750D1*
X5925399Y5105792D1*
X5926580Y5115773D1*
X5928541Y5125630D1*
X5931269Y5135303D1*
X5934747Y5144732D1*
X5938955Y5153859D1*
X5943865Y5162628D1*
X5949449Y5170984D1*
X5955671Y5178877D1*
X5962493Y5186257D1*
X5969873Y5193079D1*
X5977766Y5199301D1*
X5986122Y5204885D1*
X5994891Y5209795D1*
X6004018Y5214003D1*
X6013447Y5217481D1*
X6023120Y5220209D1*
X6032977Y5222170D1*
X6042958Y5223351D1*
X6053000Y5223746D1*
X6063042Y5223351D1*
X6073023Y5222170D1*
X6082880Y5220209D1*
X6092553Y5217481D1*
X6101982Y5214003D1*
X6111109Y5209795D1*
X6119878Y5204885D1*
X6128234Y5199301D1*
X6136127Y5193079D1*
X6143507Y5186257D1*
X6150329Y5178877D1*
X6156551Y5170984D1*
X6162135Y5162628D1*
X6167045Y5153859D1*
X6171253Y5144732D1*
X6174731Y5135303D1*
X6177459Y5125630D1*
X6179420Y5115773D1*
X6180601Y5105792D1*
X6180996Y5095750D1*
X6180601Y5085708D1*
X6179420Y5075727D1*
X6177459Y5065870D1*
X6174731Y5056197D1*
X6171253Y5046768D1*
X6167045Y5037641D1*
X6162135Y5028872D1*
X6156551Y5020516D1*
X6150329Y5012623D1*
X6143507Y5005243D1*
X6136127Y4998421D1*
X6128234Y4992199D1*
X6119878Y4986615D1*
X6111109Y4981705D1*
X6101982Y4977497D1*
X6092553Y4974019D1*
X6082880Y4971291D1*
X6068540Y4968799D1*
X6082880Y4966209D1*
X6092553Y4963481D1*
X6101982Y4960003D1*
X6111109Y4955795D1*
X6119878Y4950885D1*
X6128234Y4945301D1*
X6136127Y4939079D1*
X6143507Y4932257D1*
X6150329Y4924877D1*
X6156551Y4916984D1*
X6162135Y4908628D1*
X6167045Y4899859D1*
X6171253Y4890732D1*
X6174731Y4881303D1*
X6177459Y4871630D1*
X6179420Y4861773D1*
X6180601Y4851792D1*
X6180996Y4841750D1*
X6180601Y4831708D1*
X6179420Y4821727D1*
X6177459Y4811870D1*
X6174731Y4802197D1*
X6171253Y4792768D1*
X6167045Y4783641D1*
X6162135Y4774872D1*
X6156551Y4766516D1*
X6150329Y4758623D1*
X6143507Y4751243D1*
X6136127Y4744421D1*
X6128234Y4738199D1*
X6119878Y4732615D1*
X6111109Y4727705D1*
X6101982Y4723497D1*
X6092553Y4720019D1*
X6082880Y4717291D1*
X6068540Y4714799D1*
X6082880Y4712209D1*
X6092553Y4709481D1*
X6101982Y4706003D1*
X6111109Y4701795D1*
X6119878Y4696885D1*
X6128234Y4691301D1*
X6136127Y4685079D1*
X6143507Y4678257D1*
X6150329Y4670877D1*
X6156551Y4662984D1*
X6162135Y4654628D1*
X6167045Y4645859D1*
X6171253Y4636732D1*
X6174731Y4627303D1*
X6177459Y4617630D1*
X6179420Y4607773D1*
X6180601Y4597792D1*
X6180996Y4587750D1*
X6180601Y4577708D1*
X6179420Y4567727D1*
X6177459Y4557870D1*
X6174731Y4548197D1*
X6171253Y4538768D1*
X6167045Y4529641D1*
X6162135Y4520872D1*
X6156551Y4512516D1*
X6150329Y4504623D1*
X6143507Y4497243D1*
X6136127Y4490421D1*
X6128234Y4484199D1*
X6119878Y4478615D1*
X6111109Y4473705D1*
X6101982Y4469497D1*
X6092553Y4466019D1*
X6082880Y4463291D1*
X6068540Y4460799D1*
X6082880Y4458209D1*
X6092553Y4455481D1*
X6101982Y4452003D1*
X6111109Y4447795D1*
X6119878Y4442885D1*
X6128234Y4437301D1*
X6136127Y4431079D1*
X6143507Y4424257D1*
X6150329Y4416877D1*
X6156551Y4408984D1*
X6162135Y4400628D1*
X6167045Y4391859D1*
X6171253Y4382732D1*
X6174731Y4373303D1*
X6177459Y4363630D1*
X6179420Y4353773D1*
X6180601Y4343792D1*
X6180996Y4333750D1*
X6180601Y4323708D1*
X6179420Y4313727D1*
X6177459Y4303870D1*
X6174731Y4294197D1*
X6171253Y4284768D1*
X6167045Y4275641D1*
X6162135Y4266872D1*
X6156551Y4258516D1*
X6150329Y4250623D1*
X6143507Y4243243D1*
X6136127Y4236421D1*
X6128234Y4230199D1*
X6119878Y4224615D1*
X6111109Y4219705D1*
X6101982Y4215497D1*
X6092553Y4212019D1*
X6082880Y4209291D1*
X6068540Y4206799D1*
X6082880Y4204209D1*
X6092553Y4201481D1*
X6101982Y4198003D1*
X6111109Y4193795D1*
X6119878Y4188885D1*
X6128234Y4183301D1*
X6136127Y4177079D1*
X6143507Y4170257D1*
X6150329Y4162877D1*
X6156551Y4154984D1*
X6162135Y4146628D1*
X6167045Y4137859D1*
X6171253Y4128732D1*
X6174731Y4119303D1*
X6177459Y4109630D1*
X6179420Y4099773D1*
X6180601Y4089792D1*
X6180996Y4079750D1*
X6180601Y4069708D1*
X6179420Y4059727D1*
X6177459Y4049870D1*
X6174731Y4040197D1*
X6171253Y4030768D1*
X6167045Y4021641D1*
X6162135Y4012872D1*
X6156551Y4004516D1*
X6150329Y3996623D1*
X6143507Y3989243D1*
X6136127Y3982421D1*
X6128234Y3976199D1*
X6119878Y3970615D1*
X6111109Y3965705D1*
X6101982Y3961497D1*
X6092553Y3958019D1*
X6082880Y3955291D1*
X6068540Y3952799D1*
X6082880Y3950209D1*
X6092553Y3947481D1*
X6101982Y3944003D1*
X6111109Y3939795D1*
X6119878Y3934885D1*
X6128234Y3929301D1*
X6136127Y3923079D1*
X6143507Y3916257D1*
X6150329Y3908877D1*
X6156551Y3900984D1*
X6162135Y3892628D1*
X6167045Y3883859D1*
X6171253Y3874732D1*
X6174731Y3865303D1*
X6177459Y3855630D1*
X6179420Y3845773D1*
X6180601Y3835792D1*
X6180996Y3825750D1*
X6180601Y3815708D1*
X1354601Y5085708D2*
X1353420Y5075727D1*
X1351459Y5065870D1*
X1348731Y5056197D1*
X1345253Y5046768D1*
X1341045Y5037641D1*
X1336135Y5028872D1*
X1330551Y5020516D1*
X1324329Y5012623D1*
X1317507Y5005243D1*
X1310127Y4998421D1*
X1302234Y4992199D1*
X1293878Y4986615D1*
X1285109Y4981705D1*
X1275982Y4977497D1*
X1266553Y4974019D1*
X1256880Y4971291D1*
X1242540Y4968799D1*
X1256880Y4966209D1*
X1266553Y4963481D1*
X1275982Y4960003D1*
X1285109Y4955795D1*
X1293878Y4950885D1*
X1302234Y4945301D1*
X1310127Y4939079D1*
X1317507Y4932257D1*
X1324329Y4924877D1*
X1330551Y4916984D1*
X1336135Y4908628D1*
X1341045Y4899859D1*
X1345253Y4890732D1*
X1348731Y4881303D1*
X1351459Y4871630D1*
X1353420Y4861773D1*
X1354601Y4851792D1*
X1354996Y4841750D1*
X1354601Y4831708D1*
X1353420Y4821727D1*
X1351459Y4811870D1*
X1348731Y4802197D1*
X1345253Y4792768D1*
X1341045Y4783641D1*
X1336135Y4774872D1*
X1330551Y4766516D1*
X1324329Y4758623D1*
X1317507Y4751243D1*
X1310127Y4744421D1*
X1302234Y4738199D1*
X1293878Y4732615D1*
X1285109Y4727705D1*
X1275982Y4723497D1*
X1266553Y4720019D1*
X1256880Y4717291D1*
X1242540Y4714799D1*
X1256880Y4712209D1*
X1266553Y4709481D1*
X1275982Y4706003D1*
X1285109Y4701795D1*
X1293878Y4696885D1*
X1302234Y4691301D1*
X1310127Y4685079D1*
X1317507Y4678257D1*
X1324329Y4670877D1*
X1330551Y4662984D1*
X1336135Y4654628D1*
X1341045Y4645859D1*
X1345253Y4636732D1*
X1348731Y4627303D1*
X1351459Y4617630D1*
X1353420Y4607773D1*
X1354601Y4597792D1*
X1354996Y4587750D1*
X1354601Y4577708D1*
X1353420Y4567727D1*
X1351459Y4557870D1*
X1348731Y4548197D1*
X1345253Y4538768D1*
X1341045Y4529641D1*
X1336135Y4520872D1*
X1330551Y4512516D1*
X1324329Y4504623D1*
X1317507Y4497243D1*
X1310127Y4490421D1*
X1302234Y4484199D1*
X1293878Y4478615D1*
X1285109Y4473705D1*
X1275982Y4469497D1*
X1266553Y4466019D1*
X1256880Y4463291D1*
X1242540Y4460799D1*
X1256880Y4458209D1*
X1266553Y4455481D1*
X1275982Y4452003D1*
X1285109Y4447795D1*
X1293878Y4442885D1*
X1302234Y4437301D1*
X1310127Y4431079D1*
X1317507Y4424257D1*
X1324329Y4416877D1*
X1330551Y4408984D1*
X1336135Y4400628D1*
X1341045Y4391859D1*
X1345253Y4382732D1*
X1348731Y4373303D1*
X1351459Y4363630D1*
X1353420Y4353773D1*
X1354601Y4343792D1*
X1354996Y4333750D1*
X1354601Y4323708D1*
X1353420Y4313727D1*
X1351459Y4303870D1*
X1348731Y4294197D1*
X1345253Y4284768D1*
X1341045Y4275641D1*
X1336135Y4266872D1*
X1330551Y4258516D1*
X1324329Y4250623D1*
X1317507Y4243243D1*
X1310127Y4236421D1*
X1302234Y4230199D1*
X1293878Y4224615D1*
X1285109Y4219705D1*
X1275982Y4215497D1*
X1266553Y4212019D1*
X1256880Y4209291D1*
X1242540Y4206799D1*
X1256880Y4204209D1*
X1266553Y4201481D1*
X1275982Y4198003D1*
X1285109Y4193795D1*
X1293878Y4188885D1*
X1302234Y4183301D1*
X1310127Y4177079D1*
X1317507Y4170257D1*
X1324329Y4162877D1*
X1330551Y4154984D1*
X1336135Y4146628D1*
X1341045Y4137859D1*
X1345253Y4128732D1*
X1348731Y4119303D1*
X1351459Y4109630D1*
X1353420Y4099773D1*
X1354601Y4089792D1*
X1354996Y4079750D1*
X1354601Y4069708D1*
X1353420Y4059727D1*
X1351459Y4049870D1*
X1348731Y4040197D1*
X1345253Y4030768D1*
X1341045Y4021641D1*
X1336135Y4012872D1*
X1330551Y4004516D1*
X1324329Y3996623D1*
X1317507Y3989243D1*
X1310127Y3982421D1*
X1302234Y3976199D1*
X1293878Y3970615D1*
X1285109Y3965705D1*
X1275982Y3961497D1*
X1266553Y3958019D1*
X1256880Y3955291D1*
X1242540Y3952799D1*
X1256880Y3950209D1*
X1266553Y3947481D1*
X1275982Y3944003D1*
X1285109Y3939795D1*
X1293878Y3934885D1*
X1302234Y3929301D1*
X1310127Y3923079D1*
X1317507Y3916257D1*
X1324329Y3908877D1*
X1330551Y3900984D1*
X1336135Y3892628D1*
X1341045Y3883859D1*
X1345253Y3874732D1*
X1348731Y3865303D1*
X1351459Y3855630D1*
X1353420Y3845773D1*
X1354601Y3835792D1*
X1354996Y3825750D1*
X1354601Y3815708D1*
X1353420Y3805727D1*
X1351459Y3795870D1*
X1348731Y3786197D1*
X1345253Y3776768D1*
X1341045Y3767641D1*
X1336135Y3758872D1*
X1330551Y3750516D1*
X1324329Y3742623D1*
X1317507Y3735243D1*
X1310127Y3728421D1*
X1302234Y3722199D1*
X1293878Y3716615D1*
X1285109Y3711705D1*
X1275982Y3707497D1*
X1266553Y3704019D1*
X1256880Y3701291D1*
X1242540Y3698799D1*
X1256880Y3696209D1*
X1266553Y3693481D1*
X1275982Y3690003D1*
X1285109Y3685795D1*
X1293878Y3680885D1*
X1302234Y3675301D1*
X1310127Y3669079D1*
X1317507Y3662257D1*
X1324329Y3654877D1*
X1330551Y3646984D1*
X1336135Y3638628D1*
X1341045Y3629859D1*
X1345253Y3620732D1*
X1348731Y3611303D1*
X1351459Y3601630D1*
X1353420Y3591773D1*
X1354601Y3581792D1*
X1354996Y3571750D1*
X1354601Y3561708D1*
X1353420Y3551727D1*
X1351459Y3541870D1*
X1348731Y3532197D1*
X1345253Y3522768D1*
X1341045Y3513641D1*
X1336135Y3504872D1*
X1330551Y3496516D1*
X1324329Y3488623D1*
X1317507Y3481243D1*
X1310127Y3474421D1*
X1302234Y3468199D1*
X1293878Y3462615D1*
X1285109Y3457705D1*
X1275982Y3453497D1*
X1266553Y3450019D1*
X1256880Y3447291D1*
X1242540Y3444799D1*
X1256880Y3442209D1*
X1266553Y3439481D1*
X1275982Y3436003D1*
X1285109Y3431795D1*
X1293878Y3426885D1*
X1302234Y3421301D1*
X1310127Y3415079D1*
X1317507Y3408257D1*
X1324329Y3400877D1*
X1330551Y3392984D1*
X1336135Y3384628D1*
X1341045Y3375859D1*
X1345253Y3366732D1*
X1348731Y3357303D1*
X1351459Y3347630D1*
X1353420Y3337773D1*
X1354601Y3327792D1*
X1354996Y3317750D1*
X1354601Y3307708D1*
X1353420Y3297727D1*
X1351459Y3287870D1*
X1348731Y3278197D1*
X1345253Y3268768D1*
X1341045Y3259641D1*
X1336135Y3250872D1*
X1330551Y3242516D1*
X1324329Y3234623D1*
X1317507Y3227243D1*
X1310127Y3220421D1*
X1302234Y3214199D1*
X1293878Y3208615D1*
X1285109Y3203705D1*
X1275982Y3199497D1*
X1266553Y3196019D1*
X1256880Y3193291D1*
X1247023Y3191330D1*
X1237042Y3190149D1*
X1227000Y3189754D1*
X1216958Y3190149D1*
X1206977Y3191330D1*
X1197120Y3193291D1*
X1187447Y3196019D1*
X1178018Y3199497D1*
X1168891Y3203705D1*
X1160122Y3208615D1*
X1151766Y3214199D1*
X1143873Y3220421D1*
X1136493Y3227243D1*
X1129671Y3234623D1*
X1123449Y3242516D1*
X1117865Y3250872D1*
X1112955Y3259641D1*
X1108747Y3268768D1*
X1105269Y3278197D1*
X1102541Y3287870D1*
X1100580Y3297727D1*
X1099399Y3307708D1*
X1099004Y3317750D1*
X1099399Y3327792D1*
X1100580Y3337773D1*
X1102541Y3347630D1*
X1105269Y3357303D1*
X1108747Y3366732D1*
X1112955Y3375859D1*
X1117865Y3384628D1*
X1123449Y3392984D1*
X1129671Y3400877D1*
X1136493Y3408257D1*
X1143873Y3415079D1*
X1151766Y3421301D1*
X1160122Y3426885D1*
X1168891Y3431795D1*
X1178018Y3436003D1*
X1187447Y3439481D1*
X1197120Y3442209D1*
X1211460Y3444701D1*
X1197120Y3447291D1*
X1187447Y3450019D1*
X1178018Y3453497D1*
X1168891Y3457705D1*
X1160122Y3462615D1*
X1151766Y3468199D1*
X1143873Y3474421D1*
X1136493Y3481243D1*
X1129671Y3488623D1*
X1123449Y3496516D1*
X1117865Y3504872D1*
X1112955Y3513641D1*
X1108747Y3522768D1*
X1105269Y3532197D1*
X1102541Y3541870D1*
X1100580Y3551727D1*
X1099399Y3561708D1*
X1099004Y3571750D1*
X1099399Y3581792D1*
X1100580Y3591773D1*
X1102541Y3601630D1*
X1105269Y3611303D1*
X1108747Y3620732D1*
X1112955Y3629859D1*
X1117865Y3638628D1*
X1123449Y3646984D1*
X1129671Y3654877D1*
X1136493Y3662257D1*
X1143873Y3669079D1*
X1151766Y3675301D1*
X1160122Y3680885D1*
X1168891Y3685795D1*
X1178018Y3690003D1*
X1187447Y3693481D1*
X1197120Y3696209D1*
X1211460Y3698701D1*
X1197120Y3701291D1*
X1187447Y3704019D1*
X1178018Y3707497D1*
X1168891Y3711705D1*
X1160122Y3716615D1*
X1151766Y3722199D1*
X1143873Y3728421D1*
X1136493Y3735243D1*
X1129671Y3742623D1*
X1123449Y3750516D1*
X1117865Y3758872D1*
X1112955Y3767641D1*
X1108747Y3776768D1*
X1105269Y3786197D1*
X1102541Y3795870D1*
X1100580Y3805727D1*
X1099399Y3815708D1*
X1099004Y3825750D1*
X1099399Y3835792D1*
X1100580Y3845773D1*
X1102541Y3855630D1*
X1105269Y3865303D1*
X1108747Y3874732D1*
X1112955Y3883859D1*
X1117865Y3892628D1*
X1123449Y3900984D1*
X1129671Y3908877D1*
X1136493Y3916257D1*
X1143873Y3923079D1*
X1151766Y3929301D1*
X1160122Y3934885D1*
X1168891Y3939795D1*
X1178018Y3944003D1*
X1187447Y3947481D1*
X1197120Y3950209D1*
X1211460Y3952701D1*
X1197120Y3955291D1*
X1187447Y3958019D1*
X1178018Y3961497D1*
X1168891Y3965705D1*
X1160122Y3970615D1*
X1151766Y3976199D1*
X1143873Y3982421D1*
X1136493Y3989243D1*
X1129671Y3996623D1*
X1123449Y4004516D1*
X1117865Y4012872D1*
X1112955Y4021641D1*
X1108747Y4030768D1*
X1105269Y4040197D1*
X1102541Y4049870D1*
X1100580Y4059727D1*
X1099399Y4069708D1*
X1099004Y4079750D1*
X1099399Y4089792D1*
X1100580Y4099773D1*
X1102541Y4109630D1*
X1105269Y4119303D1*
X1108747Y4128732D1*
X1112955Y4137859D1*
X1117865Y4146628D1*
X1123449Y4154984D1*
X1129671Y4162877D1*
X1136493Y4170257D1*
X1143873Y4177079D1*
X1151766Y4183301D1*
X1160122Y4188885D1*
X1168891Y4193795D1*
X1178018Y4198003D1*
X1187447Y4201481D1*
X1197120Y4204209D1*
X1211460Y4206701D1*
X1197120Y4209291D1*
X1187447Y4212019D1*
X1178018Y4215497D1*
X1168891Y4219705D1*
X1160122Y4224615D1*
X1151766Y4230199D1*
X1143873Y4236421D1*
X1136493Y4243243D1*
X1129671Y4250623D1*
X1123449Y4258516D1*
X1117865Y4266872D1*
X1112955Y4275641D1*
X1108747Y4284768D1*
X1105269Y4294197D1*
X1102541Y4303870D1*
X1100580Y4313727D1*
X1099399Y4323708D1*
X1099004Y4333750D1*
X1099399Y4343792D1*
X1100580Y4353773D1*
X1102541Y4363630D1*
X1105269Y4373303D1*
X1108747Y4382732D1*
X1112955Y4391859D1*
X1117865Y4400628D1*
X1123449Y4408984D1*
X1129671Y4416877D1*
X1136493Y4424257D1*
X1143873Y4431079D1*
X1151766Y4437301D1*
X1160122Y4442885D1*
X1168891Y4447795D1*
X1178018Y4452003D1*
X1187447Y4455481D1*
X1197120Y4458209D1*
X1211460Y4460701D1*
X1197120Y4463291D1*
X1187447Y4466019D1*
X1178018Y4469497D1*
X1168891Y4473705D1*
X1160122Y4478615D1*
X1151766Y4484199D1*
X1143873Y4490421D1*
X1136493Y4497243D1*
X1129671Y4504623D1*
X1123449Y4512516D1*
X1117865Y4520872D1*
X1112955Y4529641D1*
X1108747Y4538768D1*
X1105269Y4548197D1*
X1102541Y4557870D1*
X1100580Y4567727D1*
X1099399Y4577708D1*
X1099004Y4587750D1*
X1099399Y4597792D1*
X1100580Y4607773D1*
X1102541Y4617630D1*
X1105269Y4627303D1*
X1108747Y4636732D1*
X1112955Y4645859D1*
X1117865Y4654628D1*
X1123449Y4662984D1*
X1129671Y4670877D1*
X1136493Y4678257D1*
X1143873Y4685079D1*
X1151766Y4691301D1*
X1160122Y4696885D1*
X1168891Y4701795D1*
X1178018Y4706003D1*
X1187447Y4709481D1*
X1197120Y4712209D1*
X1211460Y4714701D1*
X1197120Y4717291D1*
X1187447Y4720019D1*
X1178018Y4723497D1*
X1168891Y4727705D1*
X1160122Y4732615D1*
X1151766Y4738199D1*
X1143873Y4744421D1*
X1136493Y4751243D1*
X1129671Y4758623D1*
X1123449Y4766516D1*
X1117865Y4774872D1*
X1112955Y4783641D1*
X1108747Y4792768D1*
X1105269Y4802197D1*
X1102541Y4811870D1*
X1100580Y4821727D1*
X1099399Y4831708D1*
X1099004Y4841750D1*
X1099399Y4851792D1*
X1100580Y4861773D1*
X1102541Y4871630D1*
X1105269Y4881303D1*
X1108747Y4890732D1*
X1112955Y4899859D1*
X1117865Y4908628D1*
X1123449Y4916984D1*
X1129671Y4924877D1*
X1136493Y4932257D1*
X1143873Y4939079D1*
X1151766Y4945301D1*
X1160122Y4950885D1*
X1168891Y4955795D1*
X1178018Y4960003D1*
X1187447Y4963481D1*
X1197120Y4966209D1*
X1211460Y4968701D1*
X1197120Y4971291D1*
X1187447Y4974019D1*
X1178018Y4977497D1*
X1168891Y4981705D1*
X1160122Y4986615D1*
X1151766Y4992199D1*
X1143873Y4998421D1*
X1136493Y5005243D1*
X1129671Y5012623D1*
X1123449Y5020516D1*
X1117865Y5028872D1*
X1112955Y5037641D1*
X1108747Y5046768D1*
X1105269Y5056197D1*
X1102541Y5065870D1*
X1100580Y5075727D1*
X1099399Y5085708D1*
X1099004Y5095750D1*
X1099399Y5105792D1*
X1100580Y5115773D1*
X1102541Y5125630D1*
X1105269Y5135303D1*
X1108747Y5144732D1*
X1112955Y5153859D1*
X1117865Y5162628D1*
X1123449Y5170984D1*
X1129671Y5178877D1*
X1136493Y5186257D1*
X1143873Y5193079D1*
X1151766Y5199301D1*
X1160122Y5204885D1*
X1168891Y5209795D1*
X1178018Y5214003D1*
X1187447Y5217481D1*
X1197120Y5220209D1*
X1206977Y5222170D1*
X1216958Y5223351D1*
X1227000Y5223746D1*
X1237042Y5223351D1*
X1247023Y5222170D1*
X1256880Y5220209D1*
X1266553Y5217481D1*
X1275982Y5214003D1*
X1285109Y5209795D1*
X1293878Y5204885D1*
X1302234Y5199301D1*
X1310127Y5193079D1*
X1317507Y5186257D1*
X1324329Y5178877D1*
X1330551Y5170984D1*
X1336135Y5162628D1*
X1341045Y5153859D1*
X1345253Y5144732D1*
X1348731Y5135303D1*
X1351459Y5125630D1*
X1353420Y5115773D1*
X1354601Y5105792D1*
X1354996Y5095750D1*
X1354601Y5085708D1*
Y2926708D2*
X1353420Y2916727D1*
X1351459Y2906870D1*
X1348731Y2897197D1*
X1345253Y2887768D1*
X1341045Y2878641D1*
X1336135Y2869872D1*
X1330551Y2861516D1*
X1324329Y2853623D1*
X1317507Y2846243D1*
X1310127Y2839421D1*
X1302234Y2833199D1*
X1293878Y2827615D1*
X1285109Y2822705D1*
X1275982Y2818497D1*
X1266553Y2815019D1*
X1256880Y2812291D1*
X1242540Y2809799D1*
X1256880Y2807209D1*
X1266553Y2804481D1*
X1275982Y2801003D1*
X1285109Y2796795D1*
X1293878Y2791885D1*
X1302234Y2786301D1*
X1310127Y2780079D1*
X1317507Y2773257D1*
X1324329Y2765877D1*
X1330551Y2757984D1*
X1336135Y2749628D1*
X1341045Y2740859D1*
X1345253Y2731732D1*
X1348731Y2722303D1*
X1351459Y2712630D1*
X1353420Y2702773D1*
X1354601Y2692792D1*
X1354996Y2682750D1*
X1354601Y2672708D1*
X1353420Y2662727D1*
X1351459Y2652870D1*
X1348731Y2643197D1*
X1345253Y2633768D1*
X1341045Y2624641D1*
X1336135Y2615872D1*
X1330551Y2607516D1*
X1324329Y2599623D1*
X1317507Y2592243D1*
X1310127Y2585421D1*
X1302234Y2579199D1*
X1293878Y2573615D1*
X1285109Y2568705D1*
X1275982Y2564497D1*
X1266553Y2561019D1*
X1256880Y2558291D1*
X1242540Y2555799D1*
X1256880Y2553209D1*
X1266553Y2550481D1*
X1275982Y2547003D1*
X1285109Y2542795D1*
X1293878Y2537885D1*
X1302234Y2532301D1*
X1310127Y2526079D1*
X1317507Y2519257D1*
X1324329Y2511877D1*
X1330551Y2503984D1*
X1336135Y2495628D1*
X1341045Y2486859D1*
X1345253Y2477732D1*
X1348731Y2468303D1*
X1351459Y2458630D1*
X1353420Y2448773D1*
X1354601Y2438792D1*
X1354996Y2428750D1*
X1354601Y2418708D1*
X1353420Y2408727D1*
X1351459Y2398870D1*
X1348731Y2389197D1*
X1345253Y2379768D1*
X1341045Y2370641D1*
X1336135Y2361872D1*
X1330551Y2353516D1*
X1324329Y2345623D1*
X1317507Y2338243D1*
X1310127Y2331421D1*
X1302234Y2325199D1*
X1293878Y2319615D1*
X1285109Y2314705D1*
X1275982Y2310497D1*
X1266553Y2307019D1*
X1256880Y2304291D1*
X1242540Y2301799D1*
X1256880Y2299209D1*
X1266553Y2296481D1*
X1275982Y2293003D1*
X1285109Y2288795D1*
X1293878Y2283885D1*
X1302234Y2278301D1*
X1310127Y2272079D1*
X1317507Y2265257D1*
X1324329Y2257877D1*
X1330551Y2249984D1*
X1336135Y2241628D1*
X1341045Y2232859D1*
X1345253Y2223732D1*
X1348731Y2214303D1*
X1351459Y2204630D1*
X1353420Y2194773D1*
X1354601Y2184792D1*
X1354996Y2174750D1*
X1354601Y2164708D1*
X1353420Y2154727D1*
X1351459Y2144870D1*
X1348731Y2135197D1*
X1345253Y2125768D1*
X1341045Y2116641D1*
X1336135Y2107872D1*
X1330551Y2099516D1*
X1324329Y2091623D1*
X1317507Y2084243D1*
X1310127Y2077421D1*
X1302234Y2071199D1*
X1293878Y2065615D1*
X1285109Y2060705D1*
X1275982Y2056497D1*
X1266553Y2053019D1*
X1256880Y2050291D1*
X1242540Y2047799D1*
X1256880Y2045209D1*
X1266553Y2042481D1*
X1275982Y2039003D1*
X1285109Y2034795D1*
X1293878Y2029885D1*
X1302234Y2024301D1*
X1310127Y2018079D1*
X1317507Y2011257D1*
X1324329Y2003877D1*
X1330551Y1995984D1*
X1336135Y1987628D1*
X1341045Y1978859D1*
X1345253Y1969732D1*
X1348731Y1960303D1*
X1351459Y1950630D1*
X1353420Y1940773D1*
X1354601Y1930792D1*
X1354996Y1920750D1*
X1354601Y1910708D1*
X1353420Y1900727D1*
X1351459Y1890870D1*
X1348731Y1881197D1*
X1345253Y1871768D1*
X1341045Y1862641D1*
X1336135Y1853872D1*
X1330551Y1845516D1*
X1324329Y1837623D1*
X1317507Y1830243D1*
X1310127Y1823421D1*
X1302234Y1817199D1*
X1293878Y1811615D1*
X1285109Y1806705D1*
X1275982Y1802497D1*
X1266553Y1799019D1*
X1256880Y1796291D1*
X1242540Y1793799D1*
X1256880Y1791209D1*
X1266553Y1788481D1*
X1275982Y1785003D1*
X1285109Y1780795D1*
X1293878Y1775885D1*
X1302234Y1770301D1*
X1310127Y1764079D1*
X1317507Y1757257D1*
X1324329Y1749877D1*
X1330551Y1741984D1*
X1336135Y1733628D1*
X1341045Y1724859D1*
X1345253Y1715732D1*
X1348731Y1706303D1*
X1351459Y1696630D1*
X1353420Y1686773D1*
X1354601Y1676792D1*
X1354996Y1666750D1*
X1354601Y1656708D1*
X1353420Y1646727D1*
X1351459Y1636870D1*
X1348731Y1627197D1*
X1345253Y1617768D1*
X1341045Y1608641D1*
X1336135Y1599872D1*
X1330551Y1591516D1*
X1324329Y1583623D1*
X1317507Y1576243D1*
X1310127Y1569421D1*
X1302234Y1563199D1*
X1293878Y1557615D1*
X1285109Y1552705D1*
X1275982Y1548497D1*
X1266553Y1545019D1*
X1256880Y1542291D1*
X1242540Y1539799D1*
X1256880Y1537209D1*
X1266553Y1534481D1*
X1275982Y1531003D1*
X1285109Y1526795D1*
X1293878Y1521885D1*
X1302234Y1516301D1*
X1310127Y1510079D1*
X1317507Y1503257D1*
X1324329Y1495877D1*
X1330551Y1487984D1*
X1336135Y1479628D1*
X1341045Y1470859D1*
X1345253Y1461732D1*
X1348731Y1452303D1*
X1351459Y1442630D1*
X1353420Y1432773D1*
X1354601Y1422792D1*
X1354996Y1412750D1*
X1354601Y1402708D1*
X1353420Y1392727D1*
X1351459Y1382870D1*
X1348731Y1373197D1*
X1345253Y1363768D1*
X1341045Y1354641D1*
X1336135Y1345872D1*
X1330551Y1337516D1*
X1324329Y1329623D1*
X1317507Y1322243D1*
X1310127Y1315421D1*
X1302234Y1309199D1*
X1293878Y1303615D1*
X1285109Y1298705D1*
X1275982Y1294497D1*
X1266553Y1291019D1*
X1256880Y1288291D1*
X1242540Y1285799D1*
X1256880Y1283209D1*
X1266553Y1280481D1*
X1275982Y1277003D1*
X1285109Y1272795D1*
X1293878Y1267885D1*
X1302234Y1262301D1*
X1310127Y1256079D1*
X1317507Y1249257D1*
X1324329Y1241877D1*
X1330551Y1233984D1*
X1336135Y1225628D1*
X1341045Y1216859D1*
X1345253Y1207732D1*
X1348731Y1198303D1*
X1351459Y1188630D1*
X1353420Y1178773D1*
X1354601Y1168792D1*
X1354996Y1158750D1*
X1354601Y1148708D1*
X1353420Y1138727D1*
X1351459Y1128870D1*
X1348731Y1119197D1*
X1345253Y1109768D1*
X1341045Y1100641D1*
X1336135Y1091872D1*
X1330551Y1083516D1*
X1324329Y1075623D1*
X1317507Y1068243D1*
X1310127Y1061421D1*
X1302234Y1055199D1*
X1293878Y1049615D1*
X1285109Y1044705D1*
X1275982Y1040497D1*
X1268284Y1037657D1*
X6197779Y1037700D1*
X6216156Y1040152D1*
X6231128Y1046388D1*
X6243944Y1056271D1*
X6253767Y1069134D1*
X6259922Y1084099D1*
X6262339Y1102738D1*
X6262300Y5197759D1*
X6259848Y5216156D1*
X6253614Y5231127D1*
X6243732Y5243944D1*
X6230868Y5253762D1*
X6215902Y5259919D1*
X6197264Y5262332D1*
X1102221Y5262300D1*
X1083844Y5259848D1*
X1068870Y5253614D1*
X1056058Y5243730D1*
X1046238Y5230865D1*
X1040082Y5215897D1*
X1037668Y5197261D1*
X1037700Y1102240D1*
X1040152Y1083844D1*
X1046388Y1068872D1*
X1056272Y1056053D1*
X1069135Y1046234D1*
X1084104Y1040074D1*
X1102735Y1037665D1*
X1185427Y1037700D1*
X1168891Y1044705D1*
X1160122Y1049615D1*
X1151766Y1055199D1*
X1143873Y1061421D1*
X1136493Y1068243D1*
X1129671Y1075623D1*
X1123449Y1083516D1*
X1117865Y1091872D1*
X1112955Y1100641D1*
X1108747Y1109768D1*
X1105269Y1119197D1*
X1102541Y1128870D1*
X1100580Y1138727D1*
X1099399Y1148708D1*
X1099004Y1158750D1*
X1099399Y1168792D1*
X1100580Y1178773D1*
X1102541Y1188630D1*
X1105269Y1198303D1*
X1108747Y1207732D1*
X1112955Y1216859D1*
X1117865Y1225628D1*
X1123449Y1233984D1*
X1129671Y1241877D1*
X1136493Y1249257D1*
X1143873Y1256079D1*
X1151766Y1262301D1*
X1160122Y1267885D1*
X1168891Y1272795D1*
X1178018Y1277003D1*
X1187447Y1280481D1*
X1197120Y1283209D1*
X1211460Y1285701D1*
X1197120Y1288291D1*
X1187447Y1291019D1*
X1178018Y1294497D1*
X1168891Y1298705D1*
X1160122Y1303615D1*
X1151766Y1309199D1*
X1143873Y1315421D1*
X1136493Y1322243D1*
X1129671Y1329623D1*
X1123449Y1337516D1*
X1117865Y1345872D1*
X1112955Y1354641D1*
X1108747Y1363768D1*
X1105269Y1373197D1*
X1102541Y1382870D1*
X1100580Y1392727D1*
X1099399Y1402708D1*
X1099004Y1412750D1*
X1099399Y1422792D1*
X1100580Y1432773D1*
X1102541Y1442630D1*
X1105269Y1452303D1*
X1108747Y1461732D1*
X1112955Y1470859D1*
X1117865Y1479628D1*
X1123449Y1487984D1*
X1129671Y1495877D1*
X1136493Y1503257D1*
X1143873Y1510079D1*
X1151766Y1516301D1*
X1160122Y1521885D1*
X1168891Y1526795D1*
X1178018Y1531003D1*
X1187447Y1534481D1*
X1197120Y1537209D1*
X1211460Y1539701D1*
X1197120Y1542291D1*
X1187447Y1545019D1*
X1178018Y1548497D1*
X1168891Y1552705D1*
X1160122Y1557615D1*
X1151766Y1563199D1*
X1143873Y1569421D1*
X1136493Y1576243D1*
X1129671Y1583623D1*
X1123449Y1591516D1*
X1117865Y1599872D1*
X1112955Y1608641D1*
X1108747Y1617768D1*
X1105269Y1627197D1*
X1102541Y1636870D1*
X1100580Y1646727D1*
X1099399Y1656708D1*
X1099004Y1666750D1*
X1099399Y1676792D1*
X1100580Y1686773D1*
X1102541Y1696630D1*
X1105269Y1706303D1*
X1108747Y1715732D1*
X1112955Y1724859D1*
X1117865Y1733628D1*
X1123449Y1741984D1*
X1129671Y1749877D1*
X1136493Y1757257D1*
X1143873Y1764079D1*
X1151766Y1770301D1*
X1160122Y1775885D1*
X1168891Y1780795D1*
X1178018Y1785003D1*
X1187447Y1788481D1*
X1197120Y1791209D1*
X1211460Y1793701D1*
X1197120Y1796291D1*
X1187447Y1799019D1*
X1178018Y1802497D1*
X1168891Y1806705D1*
X1160122Y1811615D1*
X1151766Y1817199D1*
X1143873Y1823421D1*
X1136493Y1830243D1*
X1129671Y1837623D1*
X1123449Y1845516D1*
X1117865Y1853872D1*
X1112955Y1862641D1*
X1108747Y1871768D1*
X1105269Y1881197D1*
X1102541Y1890870D1*
X1100580Y1900727D1*
X1099399Y1910708D1*
X1099004Y1920750D1*
X1099399Y1930792D1*
X1100580Y1940773D1*
X1102541Y1950630D1*
X1105269Y1960303D1*
X1108747Y1969732D1*
X1112955Y1978859D1*
X1117865Y1987628D1*
X1123449Y1995984D1*
X1129671Y2003877D1*
X1136493Y2011257D1*
X1143873Y2018079D1*
X1151766Y2024301D1*
X1160122Y2029885D1*
X1168891Y2034795D1*
X1178018Y2039003D1*
X1187447Y2042481D1*
X1197120Y2045209D1*
X1211460Y2047701D1*
X1197120Y2050291D1*
X1187447Y2053019D1*
X1178018Y2056497D1*
X1168891Y2060705D1*
X1160122Y2065615D1*
X1151766Y2071199D1*
X1143873Y2077421D1*
X1136493Y2084243D1*
X1129671Y2091623D1*
X1123449Y2099516D1*
X1117865Y2107872D1*
X1112955Y2116641D1*
X1108747Y2125768D1*
X1105269Y2135197D1*
X1102541Y2144870D1*
X1100580Y2154727D1*
X1099399Y2164708D1*
X1099004Y2174750D1*
X1099399Y2184792D1*
X1100580Y2194773D1*
X1102541Y2204630D1*
X1105269Y2214303D1*
X1108747Y2223732D1*
X1112955Y2232859D1*
X1117865Y2241628D1*
X1123449Y2249984D1*
X1129671Y2257877D1*
X1136493Y2265257D1*
X1143873Y2272079D1*
X1151766Y2278301D1*
X1160122Y2283885D1*
X1168891Y2288795D1*
X1178018Y2293003D1*
X1187447Y2296481D1*
X1197120Y2299209D1*
X1211460Y2301701D1*
X1197120Y2304291D1*
X1187447Y2307019D1*
X1178018Y2310497D1*
X1168891Y2314705D1*
X1160122Y2319615D1*
X1151766Y2325199D1*
X1143873Y2331421D1*
X1136493Y2338243D1*
X1129671Y2345623D1*
X1123449Y2353516D1*
X1117865Y2361872D1*
X1112955Y2370641D1*
X1108747Y2379768D1*
X1105269Y2389197D1*
X1102541Y2398870D1*
X1100580Y2408727D1*
X1099399Y2418708D1*
X1099004Y2428750D1*
X1099399Y2438792D1*
X1100580Y2448773D1*
X1102541Y2458630D1*
X1105269Y2468303D1*
X1108747Y2477732D1*
X1112955Y2486859D1*
X1117865Y2495628D1*
X1123449Y2503984D1*
X1129671Y2511877D1*
X1136493Y2519257D1*
X1143873Y2526079D1*
X1151766Y2532301D1*
X1160122Y2537885D1*
X1168891Y2542795D1*
X1178018Y2547003D1*
X1187447Y2550481D1*
X1197120Y2553209D1*
X1211460Y2555701D1*
X1197120Y2558291D1*
X1187447Y2561019D1*
X1178018Y2564497D1*
X1168891Y2568705D1*
X1160122Y2573615D1*
X1151766Y2579199D1*
X1143873Y2585421D1*
X1136493Y2592243D1*
X1129671Y2599623D1*
X1123449Y2607516D1*
X1117865Y2615872D1*
X1112955Y2624641D1*
X1108747Y2633768D1*
X1105269Y2643197D1*
X1102541Y2652870D1*
X1100580Y2662727D1*
X1099399Y2672708D1*
X1099004Y2682750D1*
X1099399Y2692792D1*
X1100580Y2702773D1*
X1102541Y2712630D1*
X1105269Y2722303D1*
X1108747Y2731732D1*
X1112955Y2740859D1*
X1117865Y2749628D1*
X1123449Y2757984D1*
X1129671Y2765877D1*
X1136493Y2773257D1*
X1143873Y2780079D1*
X1151766Y2786301D1*
X1160122Y2791885D1*
X1168891Y2796795D1*
X1178018Y2801003D1*
X1187447Y2804481D1*
X1197120Y2807209D1*
X1211460Y2809701D1*
X1197120Y2812291D1*
X1187447Y2815019D1*
X1178018Y2818497D1*
X1168891Y2822705D1*
X1160122Y2827615D1*
X1151766Y2833199D1*
X1143873Y2839421D1*
X1136493Y2846243D1*
X1129671Y2853623D1*
X1123449Y2861516D1*
X1117865Y2869872D1*
X1112955Y2878641D1*
X1108747Y2887768D1*
X1105269Y2897197D1*
X1102541Y2906870D1*
X1100580Y2916727D1*
X1099399Y2926708D1*
X1099004Y2936750D1*
X1099399Y2946792D1*
X1100580Y2956773D1*
X1102541Y2966630D1*
X1105269Y2976303D1*
X1108747Y2985732D1*
X1112955Y2994859D1*
X1117865Y3003628D1*
X1123449Y3011984D1*
X1129671Y3019877D1*
X1136493Y3027257D1*
X1143873Y3034079D1*
X1151766Y3040301D1*
X1160122Y3045885D1*
X1168891Y3050795D1*
X1178018Y3055003D1*
X1187447Y3058481D1*
X1197120Y3061209D1*
X1206977Y3063170D1*
X1216958Y3064351D1*
X1227000Y3064746D1*
X1237042Y3064351D1*
X1247023Y3063170D1*
X1256880Y3061209D1*
X1266553Y3058481D1*
X1275982Y3055003D1*
X1285109Y3050795D1*
X1293878Y3045885D1*
X1302234Y3040301D1*
X1310127Y3034079D1*
X1317507Y3027257D1*
X1324329Y3019877D1*
X1330551Y3011984D1*
X1336135Y3003628D1*
X1341045Y2994859D1*
X1345253Y2985732D1*
X1348731Y2976303D1*
X1351459Y2966630D1*
X1353420Y2956773D1*
X1354601Y2946792D1*
X1354996Y2936750D1*
X1354601Y2926708D1*
D21*
X5037000Y4873500D3*
D22*
X4529000D3*
X4021000D3*
D21*
X3386000D3*
D22*
X2878000D3*
X2370000D3*
D34*
X6053000Y2047750D3*
Y2301750D3*
Y2555750D3*
Y2809750D3*
Y3063750D3*
Y3317750D3*
Y3825750D3*
Y4079750D3*
Y4333750D3*
Y4587750D3*
Y4841750D3*
Y5095750D3*
X1227000D3*
Y4841750D3*
Y4587750D3*
Y4333750D3*
Y4079750D3*
Y3825750D3*
Y3571750D3*
Y3317750D3*
Y2936750D3*
Y2682750D3*
Y2428750D3*
Y2174750D3*
Y1920750D3*
Y1666750D3*
Y1412750D3*
Y1158750D3*
M02*
