M48
METRIC,0000.00
T01C0.486
T02C1.016
T03C1.3
%
T01
X+004212Y+001889
X+003831Y+002778
X+004275Y+003032
X+004529Y+003540
X+004847Y+003286
X+003259Y+003286
X+002243Y+004391
T02
X+006053Y+002048
X+006053Y+002302
X+006053Y+002556
X+006053Y+002810
X+006053Y+003064
X+006053Y+003318
X+006053Y+003826
X+006053Y+004080
X+006053Y+004334
X+006053Y+004588
X+006053Y+004842
X+006053Y+005096
X+001227Y+005096
X+001227Y+004842
X+001227Y+004588
X+001227Y+004334
X+001227Y+004080
X+001227Y+003826
X+001227Y+003572
X+001227Y+003318
X+001227Y+002937
X+001227Y+002683
X+001227Y+002429
X+001227Y+002175
X+001227Y+001921
X+001227Y+001667
X+001227Y+001413
X+001227Y+001159
T03
X+005037Y+004874
X+004529Y+004874
X+004021Y+004874
X+003386Y+004874
X+002878Y+004874
X+002370Y+004874
T00
M30
