%TF.GenerationSoftware,Novarm,DipTrace,3.0.0.2*%
%TF.CreationDate,2017-10-26T14:07:29+00:00*%
%FSLAX35Y35*%
%MOMM*%
%TF.FileFunction,Soldermask,Top*%
%TF.Part,Single*%
%AMOUTLINE1*
4,1,4,
-0.65,-0.6,
-0.65,0.6,
0.65,0.6,
0.65,-0.6,
-0.65,-0.6,
0*%
%AMOUTLINE4*
4,1,4,
0.6,-0.65,
-0.6,-0.65,
-0.6,0.65,
0.6,0.65,
0.6,-0.65,
0*%
%AMOUTLINE7*
4,1,4,
0.65,0.6,
0.65,-0.6,
-0.65,-0.6,
-0.65,0.6,
0.65,0.6,
0*%
%AMOUTLINE10*
4,1,4,
-0.75,-0.85,
-0.75,0.85,
0.75,0.85,
0.75,-0.85,
-0.75,-0.85,
0*%
%AMOUTLINE12*
4,1,4,
0.875,0.7,
-0.875,0.7,
-0.875,-0.7,
0.875,-0.7,
0.875,0.7,
0*%
%AMOUTLINE13*
4,1,4,
0.975,0.8,
-0.975,0.8,
-0.975,-0.8,
0.975,-0.8,
0.975,0.8,
0*%
%AMOUTLINE15*
4,1,4,
-0.875,-0.7,
0.875,-0.7,
0.875,0.7,
-0.875,0.7,
-0.875,-0.7,
0*%
%AMOUTLINE16*
4,1,4,
-0.975,-0.8,
0.975,-0.8,
0.975,0.8,
-0.975,0.8,
-0.975,-0.8,
0*%
%AMOUTLINE19*
4,1,4,
0.525,-0.24,
0.525,0.24,
-0.525,0.24,
-0.525,-0.24,
0.525,-0.24,
0*%
%AMOUTLINE22*
4,1,4,
-0.24,-0.525,
0.24,-0.525,
0.24,0.525,
-0.24,0.525,
-0.24,-0.525,
0*%
%AMOUTLINE25*
4,1,4,
1.45752,1.45,
-1.45,1.45,
-1.45,-1.4556,
1.25734,-1.30799,
1.45752,1.45,
0*%
%ADD30R,1.6X1.5*%
%ADD31R,1.2X1.2*%
%ADD34C,1.8796*%
%ADD43R,0.8X2.2*%
%ADD49R,0.85X1.25*%
%ADD51C,2.7*%
%ADD53R,2.7X2.7*%
%ADD55R,1.5X1.7*%
%ADD57R,1.3X1.2*%
%ADD59R,1.2X1.3*%
%ADD63C,0.39216*%
%ADD65OUTLINE1*%
%ADD68OUTLINE4*%
%ADD71OUTLINE7*%
%ADD74OUTLINE10*%
%ADD76OUTLINE12*%
%ADD77OUTLINE13*%
%ADD79OUTLINE15*%
%ADD80OUTLINE16*%
%ADD83OUTLINE19*%
%ADD86OUTLINE22*%
%ADD89OUTLINE25*%
G75*
G01*
%LPD*%
D59*
X3449500Y3095500D3*
Y3265500D3*
D65*
X4211500Y2778000D3*
X4041500D3*
D68*
X4656000Y3095500D3*
Y3265500D3*
D71*
X3259000Y4302000D3*
X3089000D3*
D57*
X3811973Y3916767D3*
X3981973D3*
D55*
X4529000Y1635000D3*
X4339000D3*
D53*
X5037000Y4873500D3*
D51*
X4529000D3*
X4021000D3*
D53*
X3386000D3*
D51*
X2878000D3*
X2370000D3*
D49*
X4973500Y3984500D3*
X5163500D3*
X5068500Y4214500D3*
D74*
X5544500Y3603500D3*
X5354500D3*
D55*
X3830500Y1635000D3*
X3640500D3*
X3830500Y1889000D3*
X3640500D3*
D77*
X5481500Y2206500D3*
D80*
X4651500D3*
X5481500Y2656500D3*
D77*
X4651500D3*
D76*
X2687500Y2206500D3*
D79*
X1857500D3*
X2687500Y2656500D3*
D76*
X1857500D3*
D83*
X3823500Y3513000D3*
Y3463000D3*
Y3413000D3*
Y3363000D3*
Y3313000D3*
D86*
X3920973Y3215500D3*
X3970987D3*
X4021000D3*
X4071013D3*
X4121027D3*
D83*
X4218500Y3313000D3*
Y3363000D3*
Y3413000D3*
Y3463000D3*
Y3513000D3*
D86*
X4121027Y3610500D3*
X4071013D3*
X4021000D3*
X3970987D3*
X3920973D3*
D89*
X4021000Y3413000D3*
D30*
X2116000Y3286000D3*
D31*
X1783500Y3386000D3*
Y3186000D3*
D43*
X2243000Y3667000D3*
X2370000D3*
X2497000D3*
X2624000D3*
Y4207000D3*
X2497000D3*
X2370000D3*
X2243000D3*
D34*
X6053000Y2047750D3*
Y2301750D3*
Y2555750D3*
Y2809750D3*
Y3063750D3*
Y3317750D3*
Y3825750D3*
Y4079750D3*
Y4333750D3*
Y4587750D3*
Y4841750D3*
Y5095750D3*
X1227000D3*
Y4841750D3*
Y4587750D3*
Y4333750D3*
Y4079750D3*
Y3825750D3*
Y3571750D3*
Y3317750D3*
Y2936750D3*
Y2682750D3*
Y2428750D3*
Y2174750D3*
Y1920750D3*
Y1666750D3*
Y1412750D3*
Y1158750D3*
X2349647Y1944707D2*
D63*
X2325501Y1969133D1*
X2289001Y1981207D1*
X2240428D1*
X2203928Y1969133D1*
X2179501Y1944707D1*
Y1920560D1*
X2191855Y1896133D1*
X2203928Y1884060D1*
X2228074Y1871987D1*
X2301074Y1847560D1*
X2325501Y1835487D1*
X2337574Y1823133D1*
X2349647Y1798987D1*
Y1762487D1*
X2325501Y1738341D1*
X2289001Y1725987D1*
X2240428D1*
X2203928Y1738341D1*
X2179501Y1762487D1*
X5037001Y1981207D2*
Y1725987D1*
X5182720D1*
X1587647Y4992707D2*
X1563501Y5017133D1*
X1527001Y5029207D1*
X1478428D1*
X1441928Y5017133D1*
X1417501Y4992707D1*
Y4968560D1*
X1429855Y4944133D1*
X1441928Y4932060D1*
X1466074Y4919987D1*
X1539074Y4895560D1*
X1563501Y4883487D1*
X1575574Y4871133D1*
X1587647Y4846987D1*
Y4810487D1*
X1563501Y4786341D1*
X1527001Y4773987D1*
X1478428D1*
X1441928Y4786341D1*
X1417501Y4810487D1*
X1666079Y4895560D2*
X1775579D1*
X1811798Y4907633D1*
X1824152Y4919987D1*
X1836225Y4944133D1*
Y4980633D1*
X1824152Y5004780D1*
X1811798Y5017133D1*
X1775579Y5029207D1*
X1666079D1*
Y4773987D1*
X1914656Y5029207D2*
Y4773987D1*
X2084802Y5029207D2*
X1914656Y4859060D1*
X1975302Y4919987D2*
X2084802Y4773987D1*
X5386251Y5029207D2*
Y4773987D1*
X5531970D1*
X5695475Y5029207D2*
Y4773987D1*
X5610402Y5029207D2*
X5780548D1*
M02*
