%TF.GenerationSoftware,Novarm,DipTrace,3.0.0.2*%
%TF.CreationDate,2017-10-26T14:07:31+00:00*%
%FSLAX35Y35*%
%MOMM*%
%TF.FileFunction,Paste,Top*%
%TF.Part,Single*%
%AMOUTLINE2*
4,1,4,
-0.45,-0.4,
-0.45,0.4,
0.45,0.4,
0.45,-0.4,
-0.45,-0.4,
0*%
%AMOUTLINE5*
4,1,4,
0.4,-0.45,
-0.4,-0.45,
-0.4,0.45,
0.4,0.45,
0.4,-0.45,
0*%
%AMOUTLINE8*
4,1,4,
0.45,0.4,
0.45,-0.4,
-0.45,-0.4,
-0.45,0.4,
0.45,0.4,
0*%
%AMOUTLINE11*
4,1,4,
-0.55,-0.65,
-0.55,0.65,
0.55,0.65,
0.55,-0.65,
-0.55,-0.65,
0*%
%AMOUTLINE12*
4,1,4,
0.875,0.7,
-0.875,0.7,
-0.875,-0.7,
0.875,-0.7,
0.875,0.7,
0*%
%AMOUTLINE14*
4,1,4,
0.775,0.6,
-0.775,0.6,
-0.775,-0.6,
0.775,-0.6,
0.775,0.6,
0*%
%AMOUTLINE15*
4,1,4,
-0.875,-0.7,
0.875,-0.7,
0.875,0.7,
-0.875,0.7,
-0.875,-0.7,
0*%
%AMOUTLINE17*
4,1,4,
-0.775,-0.6,
0.775,-0.6,
0.775,0.6,
-0.775,0.6,
-0.775,-0.6,
0*%
%AMOUTLINE20*
4,1,4,
0.325,-0.04,
0.325,0.04,
-0.325,0.04,
-0.325,-0.04,
0.325,-0.04,
0*%
%AMOUTLINE23*
4,1,4,
-0.04,-0.325,
0.04,-0.325,
0.04,0.325,
-0.04,0.325,
-0.04,-0.325,
0*%
%AMOUTLINE26*
4,1,4,
1.24248,1.25,
-1.25,1.25,
-1.25,-1.2444,
1.07061,-1.11787,
1.24248,1.25,
0*%
%ADD30R,1.6X1.5*%
%ADD31R,1.2X1.2*%
%ADD44R,0.4X1.8*%
%ADD50R,0.45X0.85*%
%ADD56R,1.1X1.3*%
%ADD58R,0.9X0.8*%
%ADD60R,0.8X0.9*%
%ADD66OUTLINE2*%
%ADD69OUTLINE5*%
%ADD72OUTLINE8*%
%ADD75OUTLINE11*%
%ADD76OUTLINE12*%
%ADD78OUTLINE14*%
%ADD79OUTLINE15*%
%ADD81OUTLINE17*%
%ADD84OUTLINE20*%
%ADD87OUTLINE23*%
%ADD90OUTLINE26*%
G75*
G01*
%LPD*%
D60*
X3449500Y3095500D3*
Y3265500D3*
D66*
X4211500Y2778000D3*
X4041500D3*
D69*
X4656000Y3095500D3*
Y3265500D3*
D72*
X3259000Y4302000D3*
X3089000D3*
D58*
X3811973Y3916767D3*
X3981973D3*
D56*
X4529000Y1635000D3*
X4339000D3*
D50*
X4973500Y3984500D3*
X5163500D3*
X5068500Y4214500D3*
D75*
X5544500Y3603500D3*
X5354500D3*
D56*
X3830500Y1635000D3*
X3640500D3*
X3830500Y1889000D3*
X3640500D3*
D78*
X5481500Y2206500D3*
D81*
X4651500D3*
X5481500Y2656500D3*
D78*
X4651500D3*
D76*
X2687500Y2206500D3*
D79*
X1857500D3*
X2687500Y2656500D3*
D76*
X1857500D3*
D84*
X3823500Y3513000D3*
Y3463000D3*
Y3413000D3*
Y3363000D3*
Y3313000D3*
D87*
X3920973Y3215500D3*
X3970987D3*
X4021000D3*
X4071013D3*
X4121027D3*
D84*
X4218500Y3313000D3*
Y3363000D3*
Y3413000D3*
Y3463000D3*
Y3513000D3*
D87*
X4121027Y3610500D3*
X4071013D3*
X4021000D3*
X3970987D3*
X3920973D3*
D90*
X4021000Y3413000D3*
D30*
X2116000Y3286000D3*
D31*
X1783500Y3386000D3*
Y3186000D3*
D44*
X2243000Y3667000D3*
X2370000D3*
X2497000D3*
X2624000D3*
Y4207000D3*
X2497000D3*
X2370000D3*
X2243000D3*
M02*
